<?xml version="1.0" encoding="utf-8"?>
<!-- Generator: Adobe Illustrator 26.0.3, SVG Export Plug-In . SVG Version: 6.00 Build 0)  -->
<svg version="1.0" id="Layer_1" xmlns="http://www.w3.org/2000/svg" xmlns:xlink="http://www.w3.org/1999/xlink" x="0px" y="0px"
	 viewBox="0 0 1920 1080" style="enable-background:new 0 0 1920 1080;" xml:space="preserve">
<style type="text/css">
	.st0{fill:#E2E2E2;}
</style>
<g>
	<path class="st0" d="M0,354c0.8-2.6,2-5.1,2.3-7.7c2.7-19,4.7-38,8-56.9c4.5-25.8,12.4-51,26.6-74.7c3.9-6.5,8.2-12.9,12.9-19
		c7.2-9.4,12.2-19.5,15-30.2c3-11.2,6.9-22.1,12.5-32.6c5.2-9.8,11.4-19.2,20.5-27c5-4.3,10.5-8.4,16.6-11.6
		c16.7-8.7,34.2-9.1,51.5-1.2c6.5,3,12.5,6.9,18,11c12.6,9.3,22.2,20.6,31.6,32c12.4,15,24.5,30.2,36.9,45.1
		c27.4,33,60.2,62.2,99.1,87c6.7,4.3,13.6,8.5,20.8,12.3c28.4,14.9,58.1,28,88.5,40.2c35.1,14,71.4,14.6,108.5,5.8
		c25-6,48.7-14.3,72.2-23.2c73.9-28.1,144.7-60.4,213.7-95.3c41-20.7,82.3-41.1,124.1-60.7c39.9-18.7,81.5-34.7,125.4-46.9
		c18.6-5.2,37.5-9.3,57.1-11.1c12.6-1.2,25.3-1.4,37.9,0.4c19.8,2.7,36,10.3,48.6,22.7c8.7,8.6,15.6,18,20.4,28.3
		c8.6,18.4,16.9,36.8,24.5,55.5c14.1,34.8,27.6,69.7,38.1,105.3c10.7,35.9,18.1,72.3,22.6,109c6,49.5,7.2,99,5.3,148.6
		c-0.9,23.8-1.7,47.6-3.1,71.3c-3.1,52.7,9.9,102.9,35,151.5c13.9,26.9,28.9,53.2,49.1,77.6c22.1,26.7,48.7,50.2,81.8,68.7
		c16.5,9.2,34.2,16.7,53.3,22c32.3,9,64.7,8.9,97-0.1c19.5-5.4,37.5-13.1,54.6-22.2c26-13.9,50.2-29.6,73.3-46.4
		c41.2-29.9,80.8-61,118.1-94c0.4-0.3,1-0.6,1.5-0.8c0,3.7,0,7.4,0,11.1c-1.5,1.1-3.1,2.1-4.4,3.3c-45.4,39.2-91.6,77.6-143.1,111.8
		c-15.2,10.1-31.3,19.4-47.4,28.7c-12.4,7.1-25.9,12.6-40,17.4c-39.5,13.5-79.1,13.8-119.1,1.1c-33.5-10.6-62.3-26.9-87.9-46.8
		c-22.3-17.4-41.2-36.9-56.8-58.3c-31.2-43-53.8-88.7-67.7-137.1c-8.6-29.9-9.6-60.4-7.7-91c2.9-48.2,4.9-96.4,3.1-144.7
		c-3-81.7-19.3-161.7-51.2-239.5c-10.2-24.9-20.5-49.7-31.4-74.3c-4.6-10.2-10.5-20.1-16.8-29.8c-3.8-5.9-8.9-11.4-14.3-16.6
		c-14.2-13.6-32.9-20.6-55-22.2c-22.9-1.7-45.1,1.7-66.9,6.7c-31.6,7.2-61.5,17.7-91,29.1c-40.6,15.7-78.8,34.4-117.2,53.1
		c-42,20.5-83.5,41.4-126,61.2c-55.2,25.8-111.9,49.3-170.8,69.6c-19.8,6.8-40.2,12.4-61.5,15.5c-30.2,4.5-59.4,1.7-87.6-7.5
		c-61-20.1-114.8-48.3-159-87.6c-20.6-18.3-39-37.9-56.2-58.3c-11.9-14.2-23.6-28.6-36.1-42.5c-7.3-8.2-15.8-15.7-24.2-23.2
		c-6.1-5.4-13.5-9.6-21.8-12.8c-16-6.1-31.5-5.3-46.4,2.3c-9.6,4.9-16.9,11.6-23.1,19.1C83,135.8,77,148.6,72.4,161.9
		c-1.3,3.7-2.5,7.4-3.7,11.2c-2.4,7.5-6.1,14.7-11.4,21.2C32.4,224.2,20,257.6,14,292.6C10.1,315,7.8,337.5,4.9,360
		c-1,7.7-1.7,15.4-2.8,23c-0.2,1.7-1.4,3.4-2.1,5.1C0,376.8,0,365.4,0,354z"/>
	<path class="st0" d="M1920,821.6c-3.5,3.1-7,6.2-10.6,9.2c-36.8,31.9-73.8,63.7-114.1,93c-17.7,12.9-36.5,25-55.3,36.9
		c-13.7,8.7-28.9,15.7-44.8,21.7c-40,15.2-80.8,17-122.6,5.4c-34.2-9.5-64.5-24.2-92.1-42.5c-33.3-22-60.6-48.1-82.4-77.8
		c-32.3-44.1-54.9-91.2-69.8-140.7c-8.2-27.2-9.4-55.1-8.2-83c1.1-24.3,3.3-48.5,4.2-72.8c1.7-44.6-0.1-89.1-5.3-133.6
		c-8.7-74.4-31.4-146.2-64.7-215.9c-7.2-15-15.2-29.8-23.3-44.6c-3.4-6.1-7.8-11.9-12.3-17.5c-20.8-25.8-51-36-88.9-33.3
		c-27.2,2-53,8.4-78.3,16.2c-39.2,12-76.3,27.3-112.4,44.1c-45.7,21.3-91.1,43.2-137,64.2c-61.1,28-123.7,53.9-188.4,76.5
		c-20.3,7.1-41.3,12.9-63,16.7c-34,5.9-67.2,3.4-100-5.3c-22.5-5.9-44.2-13.3-65.2-22.1c-20.2-8.4-38.1-19.3-54.7-31.6
		c-26-19.3-49.3-40.6-70.3-63.3c-16.2-17.6-31.6-35.6-48-53.1c-8.3-8.8-17.5-17.2-27.2-25.1c-6.1-5-13.5-9.3-21.1-12.7
		c-18.3-8.2-36.5-6-51.9,5.4c-8.6,6.4-14.9,14.1-19.6,22.7c-3.4,6.1-6.2,12.5-9,18.8c-3.4,8-7.7,15.6-14,22.4
		c-24.5,26.2-37.1,56.2-44.4,87.8c-5.2,22.6-7.8,45.5-10.3,68.3c-2.6,24.2-5,48.4-11.5,72.2c-0.7,2.5,0,5.5-3.5,7.2
		c0-5.4,0-10.7,0-16.1c0.9-1.7,2.2-3.3,2.5-5c2.7-17.6,5.6-35.2,7.7-52.9c3.4-29.2,6.1-58.4,13.9-87.2c7.4-27.1,19.1-52.8,39.2-75.7
		c6.6-7.5,10.7-15.9,14.3-24.5c3.8-9.4,8-18.7,12.9-27.8c4.3-8.1,10.8-15.2,18.9-21.3c17.5-13.2,38-14.9,58.5-4.7
		c11.2,5.6,20.7,12.9,28.7,21.1c12.6,13,24.8,26.3,36.5,39.8c19.9,23,39.5,46.1,63.4,66.5c13.3,11.4,27.2,22.5,41.5,33.2
		c27.1,20.3,59.4,34.2,93.4,45.8c18.3,6.2,37,11.4,56.7,14.2c25.3,3.5,50.1,1.6,74.7-3.5c23.4-4.9,45.6-12.2,67.5-20.3
		c75-27.7,147.5-59.1,218-93.4c40-19.4,80.2-38.7,120.8-57.3c37.9-17.4,77.5-32.2,119.3-43.1c21.8-5.7,44-9.8,67.1-9.7
		c29.5,0.1,53.2,9.3,70.7,28.3c8.8,9.5,15.5,20,21.2,30.8c14.6,27.5,26.4,55.8,38,84.2c16.7,41.1,29.5,82.8,37.7,125.5
		c5.3,27.5,8.7,55.2,10.7,83c2.8,38.5,3,77,1.2,115.6c-0.8,16.2-1.7,32.5-3,48.7c-3.7,48.8,4,96.2,25.4,142.3
		c13,28,26.6,55.8,45,81.9c24.4,34.8,55.3,65.4,95.3,89.8c24.1,14.7,50.3,26.5,79.4,34.1c37,9.6,73.3,8.1,109-3.9
		c22.8-7.6,43.3-18.2,62.7-30.2c22.9-14.2,45-29,65.4-45.4c31.5-25.3,62.4-51,93.5-76.6c4.4-3.6,8.3-7.5,12.5-11.3
		C1920,814.2,1920,817.9,1920,821.6z"/>
	<path class="st0" d="M0,284.6c0.9-2,2.1-4,2.6-6C7.8,254.4,15,230.7,28,208.2c2.2-3.8,4.3-7.7,7-11.2
		c10.6-13.6,16.3-28.5,19.7-44.2c3.5-16.1,9.8-31.5,19.1-46.2c6.2-9.8,13.7-19,23.9-26.4c5.4-3.9,11.3-7.6,17.7-10.4
		c17.8-7.8,36-7.6,53.9,0.1c11,4.7,19.8,11.4,27.7,18.9c11,10.5,19.8,22.1,28.9,33.6c14.3,18,27.9,36.4,43.4,53.7
		c35.1,39.5,79.9,70.7,132.3,95.3c24.2,11.4,48.2,23,72.1,34.6c12.3,6,24.8,11.5,39.2,13.8c18.5,3,36.6,1.2,54.6-2.5
		c20.9-4.4,40.8-11.1,60.3-18.4c69.5-26,136.2-56,200.7-89.1c44.9-23,89.7-46.1,135.1-68.6c46.9-23.2,95.7-43.5,147.4-59.3
		c24.5-7.5,49.5-13.6,75.8-16.1c12.9-1.2,25.7-1.4,38.6,0.3c20.8,2.9,37.4,11,50.1,24.3c9.7,10.1,16.6,21.5,21.5,33.5
		c9,22.3,17.8,44.7,25.8,67.3c11.1,31.3,22,62.6,31.7,94.2c12,38.8,19.2,78.2,23.8,118c5.6,48.3,6,96.7,4.9,145.2
		c-0.5,21.8-1.2,43.6-2,65.3c-1,28,0.4,56,7.1,83.6c5.7,23.3,15.2,45.6,26.6,67.5c15.1,28.9,32.4,56.8,55.5,82.3
		c15.9,17.5,33.7,33.6,54.9,47.2c11.6,7.4,24,13.7,37.3,19c36.6,14.4,74.1,16.2,112.5,5.1c21.4-6.2,41.1-14.9,59.8-25.2
		c33.4-18.4,64.7-38.8,94.4-60.9c30.8-22.9,61.6-45.9,89.8-71c0.2-0.2,0.7-0.3,1.1-0.4c0,3.7,0,7.4,0,11.1c-1.2,0.9-2.5,1.7-3.6,2.6
		c-46.3,39.4-94.3,77.4-147.3,111.3c-16.5,10.5-33.3,20.7-51.4,29.4c-15,7.3-30.7,13.5-47.4,17.9c-34.4,9.2-68.2,8.1-101.6-3.1
		c-30.4-10.1-55.8-25.7-78.3-44.5c-18.1-15.2-33.9-31.8-47-49.8c-29.1-40-51.5-82.2-64.5-127.3c-7.2-25-9.3-50.4-8.7-75.9
		c0.8-34.9,2.3-69.7,3.1-104.5c0.8-37.4-0.5-74.7-4.2-112c-5.8-56.8-18.5-112.6-38.3-167.4c-12.5-34.5-25.6-68.8-38.9-103
		c-3.9-10-9.3-19.8-14.9-29.3c-3.7-6.3-8.7-12.3-14-17.9c-13.9-14.3-32.8-21.8-55.3-23.6c-22-1.7-43.4,1.2-64.6,5.6
		c-30,6.3-58.4,15.7-86.4,26.1c-47.8,17.7-92.9,39.2-137.3,61.6c-45.6,23-91,46.4-137.2,68.8c-53.4,25.9-108.7,49.2-165.7,69.7
		c-20.4,7.3-41.4,13.6-63.5,17.1c-27.3,4.2-53.7,2.3-78.1-8.7c-33.4-15.1-67.1-30-99.1-46.8c-44.3-23.2-81.4-52.9-111.4-87.7
		c-15.8-18.4-30.3-37.6-45.6-56.2c-6.9-8.4-14.2-16.6-21.9-24.7c-6.5-6.9-14.3-12.8-23.3-17.7c-21-11.3-43.9-11.1-64.4,0.7
		c-11.2,6.4-19.6,14.7-26.6,24c-11.3,15-18,31.3-22.7,48.3c-0.9,3.3-1.8,6.5-2.6,9.8c-2.2,8.8-5.7,17.2-11.5,24.9
		c-22.9,30.3-34.4,63.5-40.6,98.2c-0.9,5.1-1.6,10.3-2.7,15.4c-0.4,1.7-1.4,3.4-2.2,5.1C0,300.7,0,292.6,0,284.6z"/>
	<path class="st0" d="M1920,845.7c-1.3,1-2.8,1.9-4,3c-36.3,32.5-73.3,64.6-112.7,94.7c-16.6,12.7-34.2,24.5-51.8,36.3
		c-13.7,9.2-28.9,16.9-44.8,23.7c-41.7,17.8-85,20.8-130,8.8c-28.9-7.7-55.5-18.9-80.6-32.4c-46.6-25.1-85.2-56.6-114.9-94.6
		c-35.8-45.7-61-95.2-78.2-147.2c-8.8-26.6-10.2-54-9.1-81.4c0.8-20.3,3-40.5,3.7-60.7c0.8-21.3,1.1-42.6,0.7-63.8
		c-0.9-41.9-5.6-83.6-14-125.1c-13.2-64.7-36.4-127-71-186.6c-3.9-6.7-8.2-13.2-12.7-19.7c-3.4-4.8-7.2-9.5-11.2-14
		c-21.6-24-51.3-33.9-88-31.5c-25.3,1.6-49.4,7.3-73.1,14.1c-33.7,9.7-65.6,22.5-96.8,36.2c-45.3,19.9-90.2,40.4-135.6,60.1
		c-56.7,24.6-114.5,47.7-173.6,68.6c-23.4,8.2-47.4,15.2-72.5,19.4c-34.5,5.8-68.5,3.7-102.1-4.3c-22.7-5.4-44.7-12.3-66.2-20.3
		c-25-9.3-46.7-22.3-66.1-37.6c-23.1-18.3-43.5-38.4-63.3-58.9c-13.9-14.4-27.6-28.8-41.7-43.1c-8.6-8.7-18.2-16.8-29.2-23.7
		c-7.1-4.5-14.8-8.4-23.6-10.5c-12.7-3.1-24.2-1.3-34.7,5.1c-6.8,4.1-12.4,9.3-16,15.4c-9.1,15.3-21.4,28.7-34.2,42.1
		c-16.1,16.8-25,36.4-31.8,56.6c-6.5,19.6-10.2,39.7-12.9,59.9c-3.4,26-6.4,52-10.2,78c-2.4,16-6.8,31.7-14,46.8
		c-0.7,1.6-2.4,2.9-3.6,4.3c0-3.7,0-7.4,0-11.1c3.2-0.7,2.9-3.2,3.6-4.9c5-12.8,8.5-26,10.4-39.3c3.3-23.6,6.1-47.3,9-71
		c3.7-29.2,8.8-58.2,21.3-86.1c7.1-15.9,16.6-30.8,29.8-44.1c8.7-8.8,15.3-18.4,20.6-28.7c3.3-6.3,7.2-12.6,11.9-18.2
		c3.8-4.5,8.7-8.7,14.1-12.1c11.1-7,23.7-8.2,37.1-4.6c10,2.7,18.3,7.6,26.1,13.1c11.9,8.4,22.1,18,31.6,28.1
		c14.4,15.3,28.4,30.9,42.9,46.1c18.1,19,37.4,37.2,58.4,54.3c24.3,19.7,52.1,35,84.2,45.7c23.6,7.8,47.5,15,72.7,19.1
		c32.7,5.3,64.8,3.1,96.5-4.4c25.4-6,49.6-14.3,73.6-23.2c75.3-28,148.4-59.2,220-92.6c34.6-16.1,69.6-31.7,104.9-47
		c33.1-14.3,67.7-26.1,104-34.3c17.1-3.9,34.5-6.5,52.5-6.6c30.7-0.1,55.3,9.3,73.9,28.8c9.4,9.8,16.7,20.6,23,31.8
		c25.3,44.4,45.1,90.3,59.6,137.7c12.3,40.3,20.1,81.2,24.4,122.5c4.4,42.8,5.7,85.7,3.4,128.6c-1,18.6-2.8,37.1-3.6,55.7
		c-0.8,18.9-0.6,37.9,2.1,56.7c3,21.4,9.2,42.2,18,62.6c14.1,32.9,29.8,65.2,50.9,95.7c30.9,44.7,71.9,82.2,125.4,110.8
		c26.4,14.1,54.6,25.5,85.6,32.1c35.7,7.5,70.4,5.3,104.1-6.6c21.4-7.5,40.8-17.6,59.1-29.1c21.2-13.4,41.4-27.6,60.6-42.8
		c34.8-27.4,68.4-55.7,101-84.8c2.5-2.2,4.9-4.6,7.4-6.9C1920,838.3,1920,842,1920,845.7z"/>
	<path class="st0" d="M1920,868.8c-1,0.8-2.2,1.5-3.1,2.3c-37.2,33.4-74.8,66.6-115.2,97.7c-17.2,13.2-35.1,25.7-54.1,37.2
		c-13.8,8.3-28.5,15.7-44,21.8c-38.6,15.3-78.2,17.8-119.4,7.3c-33.9-8.7-65-21.7-94.6-37.2c-59.9-31.5-108-71.7-143.8-121.2
		c-24.6-34.1-44.8-69.9-61.5-106.8c-14.2-31.5-19.5-64.1-18.4-97.4c0.7-22.1,2.4-44.2,4-66.3c1.7-24.5,1.8-48.9-0.1-73.4
		c-1.8-22.2-3.9-44.5-7.2-66.6c-10.2-67.9-30.1-133.9-65.8-196.4c-6.9-12-14.8-23.7-22.9-35.3c-4.4-6.3-9.8-12.2-15.4-17.8
		c-21.2-21.5-49.3-31.3-83.6-30.3c-25,0.7-48.9,5.7-72.3,12.1c-24.2,6.6-47.6,14.9-70.3,24.2c-44,17.9-87.7,36.3-131.7,54.2
		c-58.1,23.7-116.6,46.6-176.5,67.4c-24.1,8.3-48.7,15.4-74.5,19.6c-36.2,6-71.9,3.9-107.2-4.4c-24.4-5.7-48-13.1-70.8-21.8
		c-25.4-9.7-47.4-23.2-67.4-38.9c-18.6-14.7-35.3-30.7-52-46.8c-12.6-12.2-25.1-24.5-38.3-36.2c-8.3-7.4-17.5-14-26.8-20.6
		c-6.6-4.7-14.4-8.2-22.9-10.5c-13.7-3.7-25.8-1.6-36.6,5.9c-0.9,0.7-1.9,1.4-2.8,2.1c-11.8,9.8-23.8,19.5-35.4,29.5
		c-17,14.6-27.3,32.1-34.9,50.8c-7.8,19-12.3,38.6-15.1,58.5c-3.3,23.3-5.8,46.7-9.2,70c-3.2,22-7.6,43.8-17.5,64.7
		c-2.7,5.6-5.9,11.1-9.1,16.6c-0.7,1.2-2.4,2-3.6,3c0-3,0-6,0-9.1c3-0.3,3.1-2.5,4-4.1c7.9-13.8,12.8-28.4,16.3-43.2
		c5.3-22.1,7.7-44.5,10.3-66.8c3.3-28.7,6.8-57.4,16.5-85.3c3.8-11,8.6-21.7,14.8-32c6.9-11.4,15.5-21.9,26.4-31.2
		c9-7.6,17.1-15.7,24.2-24.5c3.2-3.9,6.9-7.7,11.1-10.9c10.8-8.3,23.7-10.5,38-6.7c7.7,2.1,14.5,5.4,20.9,9.3
		c11,6.7,20.6,14.4,29.3,22.9c16.4,16,32.5,32.2,48.8,48.2c15.5,15.3,31.4,30.3,49,44.2c22.4,17.7,47.9,31.7,77.1,41.6
		c24.7,8.4,49.7,16,76,20.7c37.7,6.8,74.7,4.6,111.4-4.4c26.3-6.4,51.5-15.1,76.4-24.3c75.8-27.9,149.7-58.5,222.9-90.4
		c32-13.9,64.6-27.1,97.4-40c27.9-10.9,57.1-19.3,87.7-24.4c18.3-3,36.8-4.4,55.4-1.7c18,2.6,33.5,9,46.6,19.1
		c9.8,7.5,17.6,16.3,24.5,25.6c15.3,20.8,27.2,42.8,38,65.2c22.7,47,37.8,95.5,47.3,145.2c9.3,48.6,13.7,97.6,12.8,146.8
		c-0.4,19.4-2.3,38.8-3.5,58.2c-1.7,25.5-2.7,50.9,0.7,76.3c2.9,21.6,9.3,42.6,18.7,62.9c16.1,35,34.1,69.3,57.5,101.7
		c41.7,57.6,99.5,102,173.3,133.4c21.5,9.2,44,16.4,67.8,20.8c32.6,6,64.2,3.6,94.9-6.9c20.1-6.9,38.5-16,55.8-26.6
		c28.6-17.6,55.2-37,80-58c30.4-25.7,60.1-51.8,90.1-77.8c0.4-0.3,1-0.5,1.5-0.8C1920,862.1,1920,865.5,1920,868.8z"/>
	<path class="st0" d="M0,245.4c0.9-1.5,2.2-2.8,2.7-4.4c6.3-19,14.7-37.4,26.7-54.7c8.2-11.9,11.3-24.8,13.9-37.9
		c3.6-17.9,9.5-35.4,19.1-51.9c7.5-12.9,17-24.7,29.7-34.8c7.1-5.6,15-10.4,24-13.8c20.5-7.7,40.5-7,59.9,2.4
		c13.4,6.5,24.3,15.2,33.2,25.3c9.4,10.7,17.8,22,26.7,33c12.4,15.6,24.2,31.5,37.4,46.7c24.2,27.9,55.5,50.4,89.4,70.8
		c17.4,10.5,35.7,19.8,54.7,28.2c28,12.3,54.9,25.8,80.3,41.3c0.3,0.2,0.7,0.4,1,0.6c21.2,13.7,45,16.4,71.1,11.2
		c16.9-3.4,33-8.3,48.8-14c60.2-22,118.1-47.3,173.8-75.7c46.6-23.7,92.7-48.1,139-72.1c49.9-25.9,101.4-49.7,155.7-69.4
		c31-11.2,62.6-21.1,96-27.1c19.5-3.5,39.1-5.7,59.1-3.7c25.3,2.6,45.5,11.8,60,28.6c9.9,11.5,16.5,24.2,21.2,37.5
		c9.5,26.8,18.5,53.6,27.6,80.5c12.2,36.2,24,72.6,32.9,109.5c7.8,32.3,13.5,64.8,17.2,97.5c5,44.5,5.6,89,5.2,133.6
		c-0.3,31-0.5,62-0.4,93c0.2,47.8,14.5,92.8,41.4,135.5c17.5,27.8,37.2,54.5,62.6,78.4c13,12.2,27.5,23.2,44.2,32.3
		c39.3,21.3,81.2,25.9,126.1,12.7c22-6.4,42.2-15.4,61.5-25.8c30.7-16.5,59.9-34.5,87.4-54.1c28-19.9,55.9-40,81.9-61.6
		c3-2.5,6.1-5.1,9.1-7.6c0,3.7,0,7.4,0,11.1c-3.8,3.3-7.6,6.8-11.6,10c-49.8,40.2-101.2,79.1-159.2,111.9
		c-21,11.9-42.8,22.8-67.1,30.3c-14.7,4.5-29.8,7.6-45.5,8.6c-22.2,1.3-43.3-2.3-63.5-9.6c-24.4-8.9-45-21.9-63.2-37.3
		c-13.3-11.3-25.3-23.4-35.9-36.4c-29.8-36.6-53-75.5-67.3-117.6c-8.1-23.7-11.7-48.1-11.8-72.6c-0.1-34.2,0.7-68.4,1.3-102.5
		c0.6-37,0.1-74.1-3.1-111c-4.7-54.4-14.9-108.3-32-161.1c-14.7-45.3-30.7-90.2-46.3-135.3c-4.2-12-9.9-23.5-17.6-34.4
		c-12.8-18.3-31.5-30.4-57.8-34.4c-12.4-1.9-24.8-1.9-37.3-0.8c-32,2.8-62.3,10.6-92,20.2c-52.8,17-102.9,38.3-151,62.5
		c-48.3,24.4-96.2,49.4-144.2,74.1c-62.1,32-126.5,60.7-193.7,85.5c-19.6,7.2-39.6,13.5-60.8,17c-24.6,4-47.3,1.1-68.3-10.3
		c-18.8-10.3-38-20.1-57.2-29.8c-9.8-4.9-20.2-9.1-30.2-13.8c-49.3-23.1-92.3-51.9-127.2-88.1c-15.3-15.9-28.3-33-41.2-50.1
		c-8.7-11.5-17.5-22.9-26.8-34.1c-8.6-10.3-19-19.2-32.1-26.2c-12.6-6.7-26.2-10-41.4-8.5c-11,1.1-20.7,4.5-29.7,9.5
		c-12.3,6.8-21.9,15.7-29.9,25.7c-12.7,15.9-20.4,33.4-25.5,51.7c-2.4,8.3-4.1,16.8-6.1,25.1c-1.7,7.1-4.6,14-9,20.3
		C20,207.2,8.9,231.1,2.3,256.4c-0.4,1.4-1.5,2.7-2.3,4.1C0,255.4,0,250.4,0,245.4z"/>
	<path class="st0" d="M1920,890.9c-14.4,12.7-28.7,25.5-43.1,38.1c-29,25.3-57.9,50.7-90.5,73.3c-15,10.3-30.5,20.1-46.4,29.6
		c-13.9,8.3-29.3,14.6-45.3,20c-35.4,11.9-71.2,13.1-107.7,3.4c-25.6-6.8-49.8-15.8-73.1-26.5c-47.1-21.6-90.4-47.1-127.6-78.8
		c-25.7-21.9-47.8-46.1-67.1-71.8c-19.6-26.1-37-53.1-52.9-80.7c-19.8-34.4-30-70.4-29.7-108.1c0.1-20.4,0.9-40.9,2.7-61.3
		c2.6-31.5,2.9-62.9-0.2-94.4c-4.1-42.2-11.9-83.9-24.5-125c-12.5-40.7-29.1-80.2-53.4-117.4c-6.8-10.4-14.9-20.2-22.7-30.2
		c-2.9-3.7-6.5-7-10-10.4c-24.8-23.9-57-33.6-95.5-31.2c-27,1.7-52.8,7.5-77.9,15.2c-39.7,12.1-77.9,26.8-116.2,41.5
		c-68.3,26.2-136.8,52.1-206.3,76.2c-24.2,8.4-49,15.6-74.8,20.5c-43.8,8.4-86.9,6-129.2-5.5c-18.5-5.1-36.8-10.9-54.8-17.1
		c-25.5-8.7-47.7-21.5-68.1-36.4c-21.2-15.4-40-32.7-59.5-49.5c-12-10.3-24.1-20.7-36.9-30.4c-7.6-5.8-16.1-10.8-24.9-15.4
		c-15.5-8.1-31.7-8.3-48.8-2.1c-28.4,10.4-48.8,26.5-61.7,49c-9.3,16.3-15.8,33.3-19.1,50.9c-4,21.4-7.2,42.8-10.2,64.3
		c-3.8,26.5-7.3,53-16.5,78.7c-5.2,14.6-12.6,28.4-22.8,41.3c-1.4,1.8-3.4,3.4-5.1,5c0-3,0-6,0-9.1c3.2,0.1,3.5-2.2,4.5-3.6
		c9.5-13,16.2-26.9,20.9-41.4c6.6-20,9.9-40.4,12.7-60.9c3.5-25.6,5.7-51.4,11.4-76.8c4.1-18,9.8-35.7,19.2-52.5
		c9.9-17.8,24.2-32.9,44.4-44.3c6.5-3.7,12.9-7.6,19.3-11.4c13.4-7.9,27.6-8.4,42.4-2.6c10,3.9,18.9,9,26.6,15.3
		c13.8,11.3,27.3,22.9,40.6,34.6c15.2,13.3,29.8,27,45,40.3c31.8,27.9,69.7,48.4,114.3,61.5c22.8,6.7,45.7,13.1,69.8,16.3
		c32.3,4.3,64,2.3,95.5-4.5c29.1-6.2,56.7-15.5,84-25.3c72.4-26,143.7-53.8,214.6-82.3c33.2-13.4,66.6-26.3,101.2-37.3
		c24-7.6,48.6-13.6,74.4-16c14.4-1.3,28.7-1.4,42.9,0.9c21,3.4,38.4,11.8,52.9,24.3c11.8,10.2,21.2,21.7,29.5,33.8
		c20.6,29.6,35.9,61,48.3,93.3c15.3,39.8,25.5,80.5,32,121.8c5.5,35.3,8.9,70.7,8.3,106.3c-0.3,14.6-1.5,29.1-2.7,43.7
		c-2.2,27.4-3.6,54.9-0.7,82.4c2.4,22.2,8.4,43.7,18.5,64.5c22.3,45.6,48.9,89.5,84.2,129.7c54,61.5,125.8,105.6,212.4,134.9
		c14.8,5,30.2,8.7,46.1,10.7c27,3.5,53.1,0.5,78.3-7.5c21.3-6.8,40.8-16.1,59-27.2c28.1-17,54.1-36,78.3-56.4
		c29.2-24.7,57.7-49.9,86.5-74.9c1.8-1.6,3.5-3.3,5.3-5C1920,884.2,1920,887.6,1920,890.9z"/>
	<path class="st0" d="M1621.8,1080c-3.1-0.5-6.1-1.1-9.2-1.5c-14.7-2-28.9-5.3-42.4-10.1c-83.1-29.7-157.2-69.3-217.7-124
		c-20-18.1-38.4-37-54.5-57.4c-18-22.9-35.5-46-52.4-69.4c-27.3-37.9-41.2-78.8-40.4-122.5c0.3-19.1,0.5-38.2,2.3-57.3
		c7-71.8-3.9-142.1-27.9-211.4c-12.2-35.3-28.1-69.5-50.4-101.8c-10-14.4-21.2-28.2-35.2-40.5c-15.8-13.9-34.6-24-57.8-28.5
		c-16.2-3.1-32.7-3.4-49.2-1.9c-24.1,2.1-47.1,7.8-69.9,14.1c-39.9,11.1-78.5,24.9-117.2,38.3c-56.4,19.5-112.7,39.1-169.2,58.3
		c-25.8,8.8-52.5,15.9-80.1,20.5c-42.9,7.2-85,4.7-126.2-6.6c-18.3-5-36.4-10.8-54.2-17c-27-9.3-50.5-23.1-71.8-39
		c-13.2-9.9-25.7-20.4-38.8-30.4c-14.7-11.3-29.5-22.6-44.6-33.6c-8.6-6.2-18.2-11.4-28.7-15.6c-27.9-11-57.8-7.2-79.9,10.3
		c-11.4,9-19.3,19.9-25.5,31.5c-9,16.8-14.4,34.3-17.5,52.3c-3.9,21.9-6.8,43.9-10.4,65.8c-4.2,25.6-8.9,51.1-20.2,75.5
		c-6.8,14.7-15.8,28.5-27.9,40.9c-1.3,1.4-3.3,2.4-5,3.6c0-2.3,0-4.7,0-7c1.7-1.4,3.7-2.8,5.1-4.4c15.6-17.5,25.4-37,31.8-57.7
		c6.3-20.4,9.8-41.1,12.7-61.9c3.6-25.3,6.2-50.7,12.7-75.7c4-15.1,9.4-29.9,17.8-43.9c6.2-10.2,13.8-19.6,24.1-27.5
		c12-9.3,26.4-14.9,42.9-17.3c13.6-1.9,26.7-0.2,38.5,5.4c8.8,4.2,17.6,8.8,25.2,14.3c15.1,11,29.5,22.6,44,34.1
		c12.5,10,24.6,20.3,37.2,30.3c28.9,23,62.2,40.6,100.5,52.3c22.9,7,45.9,13.6,70.1,17.3c34.5,5.2,68.6,3.4,102.4-3.4
		c30-6.1,58.6-15.2,86.8-25.2c67.5-24,134.8-48.3,202.2-72.5c34.1-12.2,68.3-24.1,104.1-33c21.5-5.3,43.3-8.9,66-8.9
		c33.2,0,60.9,9.7,83.2,29.1c12.3,10.7,22.4,22.7,31.4,35.3c20.7,28.9,35.7,59.6,47.9,91.2c15.6,40.5,25.9,81.8,32,123.9
		c3.6,25,6.1,50.1,5.3,75.2c-0.6,20.8-2.5,41.5-3.7,62.3c-1.3,23.3-1.7,46.5,1.5,69.8c3.2,23,10.8,45.1,22.7,66.2
		c8,14.2,16.6,28.2,26.1,41.9c13.3,19,27.1,37.9,41.7,56.3c43.6,54.9,100.4,99.5,169.6,134.2c31,15.5,62.8,29.7,97.1,40
		c21.6,6.5,43.8,10,67,8.6c18.3-1.1,35.7-5,52.6-10.6c24-8,45.4-19.3,65.5-32.2c27-17.3,52.2-36.2,75.8-56.3
		c25-21.4,49.6-43.1,74.3-64.7c2-1.7,3.9-3.5,5.8-5.2c0,3,0,6,0,9.1c-14,12.5-28,25.1-42.2,37.5c-28.2,24.5-56.5,48.9-87.9,71
		c-18.5,13-37.6,25.4-58.9,35.7c-22.2,10.7-45.8,18.8-71.5,22.3c-2.9,0.4-5.7,1-8.5,1.5C1641.2,1080,1631.5,1080,1621.8,1080z"/>
	<path class="st0" d="M0,217.2c1-1.2,2.3-2.2,3-3.5c5.7-10.4,10.9-21.1,17-31.4c6.1-10.3,10-20.9,11.8-32.2
		c3.5-21.5,9.3-42.6,20.2-62.6c7.9-14.4,17.9-27.7,31.2-39.4c10.2-8.9,22-16.2,36.3-20.6c24.4-7.4,47.3-5,68.4,7.2
		c9.8,5.7,17.7,12.9,25.2,20.4c12.9,12.9,23.4,27.1,34.1,41.2c12.9,17,26.3,33.6,42.2,48.9c13.7,13.3,28.9,25.4,45.4,36.5
		c28.7,19.4,59.3,36.7,92.1,51.5c22.6,10.2,45,20.7,65.6,33.4c9,5.5,18.1,11,26.6,17.1c17.9,13,38.3,15.9,61.3,11
		c14.1-3,27.8-7.1,41-11.9c55-20.1,107.8-43.4,158.7-69.4c47.1-24.1,93.5-48.9,140.1-73.5c51.1-27,103.5-52.1,158.8-73.3
		c34.5-13.2,69.7-25.1,106.7-33.1c23.2-5,46.7-8.2,70.8-6.6c33.7,2.3,59.3,14.6,75.3,38.6c7.7,11.5,13,23.7,16.9,36.2
		c18.8,62,39.9,123.7,55.3,186.3c8.4,33.9,14.5,68,18.5,102.4c5.4,46.1,6.2,92.3,6.6,138.6c0.2,28.6,1.1,57.3,2.1,85.9
		c1.7,51.1,19.9,98.3,54.3,141.5c13.7,17.2,27.6,34.2,44.2,49.7c12.7,11.8,26.7,22.4,43.1,30.9c31.3,16.4,65,20.6,101.3,12.8
		c22.2-4.8,42.7-12.7,62.4-22.1c39.6-18.9,76.1-41.2,110.8-65.3c25-17.3,49.7-34.8,72.7-53.8c0,3.7,0,7.4,0,11.1
		c-2.7,2.3-5.3,4.8-8.1,7c-44.7,35.5-91.5,69.2-143,98.5c-17,9.7-34.4,18.9-52.9,26.8c-17.6,7.5-35.9,13.4-55.6,16.6
		c-28.7,4.7-55.9,1.5-81.8-9.3c-23.4-9.8-42.6-23.6-59.2-39.7c-30-29.1-53.9-61.3-72.6-95.8c-8.2-15.1-14.3-30.8-18.6-46.9
		c-4.7-17.8-7.6-35.7-8-53.8c-0.7-36.2-1-72.4-1.1-108.6c-0.1-30.5-0.6-61-3-91.5c-3.2-41.7-9.8-83.1-19.4-124.1
		c-11.2-47.6-27-94.4-41.9-141.3c-6-18.7-11.8-37.4-18.5-55.9c-3.2-8.8-7.4-17.5-12.3-25.8c-16.3-27.7-44.6-41-82.7-42
		c-22-0.5-43.3,2.8-64.4,7.5c-36.6,8.1-71.3,20-105.3,33.1c-52.2,20.2-101.7,43.9-150,69.3c-46.4,24.3-92.5,48.9-139.3,72.7
		c-51.6,26.3-105.3,49.8-161,70.2c-16.1,5.9-32.6,11.3-50.1,14c-6.4,1-13,1.4-19.5,1.6c-10.2,0.3-19.7-1.9-28.3-6.2
		c-4.8-2.4-9.5-5-13.9-7.9c-25.2-16.5-52.3-30.7-80.8-43.3c-30.7-13.6-59.6-29.4-86.8-47.1c-33.5-21.8-61.5-47.3-84.1-76.6
		c-9.3-12-18.3-24.1-27.5-36.2c-8.3-10.9-17.3-21.5-28.5-30.7c-5.4-4.5-11.1-8.8-17.3-12.5c-22.3-12.8-46-14-70.6-4.4
		C100,43.1,89.3,51.1,79.9,60.3c-15.5,15.2-25.7,32.6-33,51.2c-5.5,14.1-8.9,28.6-11.4,43.2c-1.7,9.7-5,19-10.7,27.7
		c-8.9,13.7-16.5,27.9-22.2,42.7c-0.5,1.2-1.7,2.1-2.6,3.2C0,224.6,0,220.9,0,217.2z"/>
	<path class="st0" d="M0,196.1c0.8-0.7,1.8-1.4,2.4-2.2c0.6-0.7,0.8-1.6,1.3-2.3c13.7-19.4,18.2-40.8,21.9-62.5
		c4.5-25.8,14.9-50.2,31.7-72.7C67,43.5,78.6,31.8,93.9,22.7c15.9-9.5,33.6-15.4,53.8-15.9c15.3-0.4,29.3,2.7,42.2,9.1
		C200,21,208.9,27.2,216,34.8c12,13,23.4,26.3,35,39.5c12.1,13.7,23.6,27.8,36.4,41.1c19,19.7,42.1,36.2,66.7,51.4
		c29.5,18.3,60.2,35.2,92.7,50.1c32.8,15,63.2,32.4,90.4,53.2c2.1,1.6,4.5,3.1,6.7,4.7c11.9,8.5,26,10.7,41.4,8.5
		c13.6-1.9,26.4-5.8,39-10.2c34.1-12,66.6-26.2,98.8-41c45.4-20.8,88.8-44.2,132.2-67.5c44.1-23.7,87.9-47.7,133.7-69.4
		c51.9-24.7,105.4-47,161.9-64.3c24.5-7.5,49.4-13.9,75.4-17.2c23.2-3,46.3-3.5,69.2,1.4c26.6,5.6,46.2,18.2,58.9,37.6
		c8.8,13.5,14.1,28,18.3,42.7c16.1,56.5,32.4,113,47.8,169.7c12.3,45.2,20.4,91,25.1,137.2c3.8,37.3,5.1,74.6,6.6,112
		c1.1,28,2.6,55.9,4.8,83.9c2.2,29.4,8.6,58.2,22.8,85.7c7.5,14.5,16.8,28.2,27.6,41.2c16.1,19.5,33.2,38.4,54.1,55
		c9.6,7.6,20.1,14.3,31.7,20c26.1,12.7,54.1,16.4,84.1,11.3c23.2-3.9,44.8-11.1,65.2-20.4c17.9-8.2,35.8-16.6,52.7-26
		c42-23.2,81.4-49.1,118.2-77.4c2.3-1.7,4.4-3.6,6.5-5.4c0,4,0,8,0,12.1c-32.1,26.1-67.2,49.4-103.1,72
		c-26.2,16.5-54,31.2-83.2,44.1c-20.8,9.1-42.5,16.5-66.1,19.9c-27.6,4-53.4,0.4-77.7-10.6c-17.5-7.9-32.5-18.2-45.6-30.2
		c-28.2-25.9-52.2-54-70.6-85c-14.3-24-21.9-49.6-25.6-75.9c-3.3-23.3-4.3-46.8-5-70.2c-1-33-1.5-66-2.8-99
		c-2.4-62.6-11-124.7-27.4-186c-11.4-42.6-24.2-84.9-36.6-127.4c-5.9-20.2-11.7-40.5-18.5-60.5c-3.2-9.3-7.8-18.5-13.3-27.1
		c-14.5-22.8-38.7-35.3-70.2-39c-25.5-3-50.6-0.4-75.4,4.5c-35.4,7.1-69,18-102,30.2c-59.7,22.1-116.3,48.5-171.1,77.5
		c-46.9,24.9-93.7,50-140.9,74.5c-49.8,25.8-101.4,49.1-155.2,69.2c-14.4,5.4-29,10.3-44.5,13.1c-4.3,0.8-8.7,1.3-13.1,1.6
		c-13.6,1.1-25.5-2-35.9-8.9c-2.8-1.8-5.6-3.6-8.2-5.5c-25.5-18.6-53.5-34.4-83.5-48c-31.8-14.4-62-30.7-91-48.5
		c-37.8-23.3-69.5-50.9-94.8-83.1c-11.4-14.5-23.1-28.9-35.4-42.9c-6.2-7.1-13.4-13.8-21-20.1c-10.6-8.7-23.5-14.8-38.6-17.4
		c-16.9-2.9-33.2-1-48.9,4.6c-17,6.1-30.5,15.5-41.8,27.1C54.8,65.4,43.1,86.4,35.5,109c-4.9,14.4-7.7,29.2-10.1,44
		c-1.3,8-4,15.7-8.2,23.1c-4.9,8.5-9.6,17.1-14.5,25.7c-0.5,0.9-1.8,1.6-2.7,2.4C0,201.5,0,198.8,0,196.1z"/>
	<path class="st0" d="M1920,666.7c-4.7,3.6-9.2,7.4-14,10.9c-35.2,25.2-72.2,48.6-111.8,69.4c-19.1,10-38.9,19-59.6,26.7
		c-19.2,7.2-39.1,12.7-60.3,14.9c-23.7,2.4-45.9-1-66.8-10c-12.3-5.3-23.6-11.9-33.6-19.6c-32.9-25.7-59.7-54.7-78.1-88.4
		c-11.1-20.3-17.4-41.6-21.1-63.5c-5.2-30.6-6.8-61.4-8.9-92.2c-2.5-37.8-4.5-75.7-8-113.4c-4.6-48.7-14.1-96.9-26.9-144.6
		c-10.6-39.5-22-78.8-33-118.2c-5.7-20.6-11-41.3-17.1-61.8c-2.4-8.1-6-16.1-10-23.8c-14.7-28.3-42-43.7-79.7-48
		c-29.4-3.4-58.2-0.4-86.7,5.6c-36.7,7.7-71.6,19.3-105.8,32.1c-58.2,21.8-113.8,47.3-167.2,75.7c-45.8,24.4-91.4,49-137.4,73.2
		c-46.7,24.6-94.7,47.5-145.1,67c-13.6,5.3-27.9,9.7-42,14c-5.8,1.8-12.3,2.6-18.5,3.3c-11.2,1.3-21.5-0.8-30.4-6.3
		c-3.8-2.4-7.5-4.9-10.9-7.6c-27.1-21.7-57.6-39.9-90.7-55.4c-33.6-15.7-65.2-33.6-96.3-52.2c-38-22.7-70.7-49.3-97-80.8
		c-9.1-10.9-18.4-21.7-28.1-32.3c-7.4-7.9-15.2-15.7-23.6-22.9c-9.1-7.8-20.3-13.6-33.1-17.3c-1-0.3-1.9-0.7-2.8-1.1
		c7.2,0,14.4,0,21.6,0c5.7,3.9,11.7,7.7,17.2,11.8c11.4,8.6,20.4,18.7,29.4,28.9c10.2,11.5,20.5,22.9,31.1,34.3
		c19,20.5,40.9,38.8,66,54.7c39,24.7,79.3,48,122.1,68.5c33.7,16.1,64.5,35,91.8,57.5c3.6,3,7.6,5.8,11.7,8.4
		c6.3,4,13.6,6.4,21.7,6.2c6.7-0.2,13.5-0.9,20-2.2c16.3-3.3,31.3-9,46.3-14.9c51.3-20.3,100.2-44,147.7-69.3
		c45.8-24.4,91.3-49,137.2-73.3c58.8-31.1,120.4-58.4,185-81.1c34.4-12.1,69.5-22.7,106.8-28.2c1-0.1,1.8-0.7,2.8-1
		c24.5,0,49.1,0,73.6,0c2.3,0.7,4.6,1.5,7,2c29.5,6.4,50.9,20.4,63.9,42.4c5.6,9.6,9.8,19.6,12.7,29.9c5.1,18.5,9.7,37.1,14.7,55.6
		c10.9,39.8,22.1,79.5,32.9,119.3c13.9,51.7,24.2,103.8,29.6,156.4c3.8,37.4,6.2,74.9,9.3,112.3c2.2,27.1,5,54.1,10.1,81
		c7.9,41.3,27.4,78.6,59.9,111.6c14.6,14.9,30.6,28.6,49.7,40c29.3,17.4,61.7,23.4,97.6,17.1c23.1-4.1,44.7-11.2,65.5-19.9
		c57-23.9,107.7-54.8,155.3-89c1.7-1.2,3.2-2.7,4.8-4C1920,658.7,1920,662.7,1920,666.7z"/>
	<path class="st0" d="M1555.8,1080c-1.8-0.8-3.5-1.8-5.3-2.5c-66.7-26.6-128.7-58.5-183.2-99.2c-35.4-26.4-66.4-55.8-94.4-87.3
		c-21.7-24.3-43.6-48.6-62.5-74.5c-17-23.3-29.4-47.9-34.7-74.5c-4.5-23-4.8-46-3.6-69.2c1.2-21.6,2.3-43.2,2.9-64.8
		c1.5-48.7-8.1-96.2-24.6-142.9c-11.7-33.3-26.7-65.7-47.5-96.2c-10.2-14.9-21.6-29.2-35.3-42.3c-9.6-9.2-20.3-17.5-32.9-24.2
		c-23.6-12.6-49.8-17.1-77.9-15.4c-27.8,1.7-54.6,7.4-80.9,14.1c-49.1,12.6-96.9,28-144.7,43.2c-38.8,12.4-77.5,25-116.5,37.1
		c-25.2,7.8-51.3,13.5-78.2,16.9c-37.2,4.7-73.7,2.3-109.7-6.6c-20-4.9-39.5-10.9-58.5-17.9c-28.4-10.3-53.1-24.8-75.8-41.6
		c-16.7-12.4-32.9-25.1-49.5-37.5c-13.4-10-27.6-19.3-43.6-26.7c-10.1-4.7-20.7-8.3-32.3-9.9c-17.8-2.4-33.5,1.2-47.3,10.3
		c-10.3,6.8-17.7,15.3-23.7,24.6c-8.5,13.2-14.3,27.3-17.5,41.8c-4.4,19.8-8,39.7-11.5,59.6c-4.7,26.9-9,53.8-19,79.9
		c-8.2,21.2-20.3,40.8-38.4,57.9c-3,2.8-6.5,5.2-9.8,7.8c0-2.7,0-5.4,0-8c3.1,0.5,3.9-1.7,5.3-2.9c11.5-10.7,20.5-22.5,27.8-35.3
		c10-17.5,16.3-35.9,20.1-54.8c4.4-21.8,7.9-43.8,11.6-65.7c3.8-22.8,7.1-45.6,16.6-67.4c3.8-8.7,8.8-17,13.9-25.3
		c4.1-6.6,10-12.4,16.8-17.6c18.1-13.8,39.2-17.8,63.2-12c11,2.6,21,7.1,30.4,12.2c16.1,8.8,30.5,19.2,44.4,29.9
		c10.7,8.3,21.6,16.6,32,25.1c36.7,29.9,80.2,51,130.1,64.1c20.5,5.4,41.2,10.1,62.7,12c27,2.4,53.6,0.8,80-3.7
		c32.6-5.6,63.6-15,94.2-25.1c59.7-19.7,119.3-39.6,179.1-59.2c31.8-10.4,64.1-20,97.4-27.2c16.1-3.5,32.5-6.2,49.2-7.1
		c36.6-1.9,68.4,6.6,94.6,27.3c14,11.1,25.5,23.7,35.8,37c19.7,25.8,34.6,53.3,46.7,81.8c16.5,38.9,27.8,78.7,34.3,119.4
		c4.8,30,5,60.2,3.4,90.3c-1.2,22.8-2.5,45.5-3,68.3c-0.4,20.8,2.3,41.5,8.7,61.8c5.3,16.8,12.9,33,23.5,48.2
		c37.5,53.8,79.9,105,132.6,150.5c37.5,32.4,81,58.8,127.6,82.2c28,14.1,56.8,27.2,87.4,37.7c3.3,1.1,6.5,2.3,9.7,3.5
		C1569.3,1080,1562.6,1080,1555.8,1080z"/>
	<path class="st0" d="M1520.3,1080c-1.9-1-3.8-2.1-5.8-2.9c-58-25.6-112.6-55-161.8-90.6c-30.2-21.8-58.5-45.2-84-70.4
		c-25.1-24.8-49.7-50-74.1-75.3c-14.7-15.2-27.2-31.5-37.1-49c-14.7-26-21.1-53.4-21.4-81.6c-0.2-21.8,1.2-43.5,1.9-65.3
		c1.2-36.1,0-72.1-8.6-107.6c-12.6-52.3-34.4-101.9-70.3-147.2c-14.6-18.4-31.5-35.3-53.2-48.8c-20.4-12.7-43.6-19.6-69.5-20.6
		c-25.4-1-50.2,2.2-74.7,6.8c-46.3,8.8-91.3,21.1-135.9,34.2c-36.3,10.6-72.4,21.6-108.8,32c-26.5,7.6-53.6,13.3-81.4,16.9
		c-40.3,5.2-79.7,2.7-118.2-7.6c-13.8-3.7-27.4-7.9-40.9-12.2c-30.3-9.8-56.8-24.4-81.1-41.6c-12.6-8.9-24.8-18.2-37.2-27.3
		c-13.3-9.8-27-19.3-42.2-27.4c-10.4-5.5-21.3-10.3-33.4-13.1c-24.7-5.9-45.4-0.9-62.2,14.5c-9.2,8.5-15.4,18.4-20.3,28.8
		c-7.6,16.3-11.7,33.2-15.2,50.2c-5.1,24.8-9.8,49.6-15.3,74.4c-4.3,19.2-11.1,37.8-21.4,55.6c-10.4,17.8-24,33.9-42,47.4
		c-1.7,1.3-4.1,2-6.1,3c0-2,0-4,0-6c2.7-1.9,5.6-3.6,8-5.6c22.5-18.7,37-41,46.6-65.5c8-20.4,12.4-41.4,16.5-62.4
		c4.6-23.7,9-47.3,14.1-71c2.7-12.4,7.4-24.4,13.9-35.9c5.3-9.4,11.8-18.2,21.1-25.5c16.1-12.7,35.1-16.6,57-12
		c12.6,2.6,23.9,7.5,34.7,13.2c16.6,8.7,31.4,19.3,45.9,30.1c9.1,6.8,18.2,13.6,27.1,20.5c37,28.9,80.8,48.7,130.1,61.4
		c31.1,8,62.7,12.5,95.4,11c24.8-1.1,49-5.2,72.8-10.6c32.3-7.4,63.5-17.3,94.8-27.1c53.4-16.8,106.9-33.4,161.7-47.2
		c25.6-6.5,51.4-12.2,78.1-15.1c17.3-1.9,34.5-2.5,51.8-0.2c22.7,3.1,42.3,11.4,59.4,23.4c17.7,12.5,31.9,27.3,44.4,43.1
		c24.1,30.3,41.1,63,54.4,97.1c12.9,32.9,21.8,66.5,25.2,100.8c2.5,24.4,2.1,48.9,1.2,73.3c-0.9,22.1-2.1,44.2-1.9,66.3
		c0.4,36.4,11.9,70.6,35.5,102c9.2,12.2,19,24.2,29.5,35.7c25.4,28,51.1,55.9,79.2,82.3c53.9,50.8,117.5,92.4,189.2,126.4
		c14.9,7.1,30.1,13.6,45.2,20.4c1.2,0.6,2.3,1.3,3.4,2C1529.6,1080,1524.9,1080,1520.3,1080z"/>
	<path class="st0" d="M1489.8,1080c-1.5-0.9-2.8-1.9-4.4-2.6c-91.7-42.3-172-95.4-242-158.5c-26.9-24.3-53.8-48.6-80.3-73.3
		c-19.3-18-35.4-37.6-46.6-59.6c-10.6-20.7-16.4-42.3-17.3-64.6c-0.8-21.4-0.3-42.9,0-64.3c0.2-25.2-0.2-50.3-4-75.3
		c-9.2-60.5-33.1-116.9-77.7-167.1c-14.9-16.8-32.2-31.9-53.8-43.7c-20.6-11.2-43.4-17.1-68.2-18.3c-28.1-1.4-55.7,1.9-83.1,6.6
		c-45.4,7.7-89.3,19.1-133.1,31.1c-36.6,10-73.1,20-110.8,27.2c-23.7,4.6-47.6,7.8-72,8.5c-33.5,1-65.5-4.5-96.9-13.3
		c-40.6-11.4-76.9-28.4-108.8-51.3c-12.4-8.9-24.8-17.7-37.3-26.5c-12.2-8.6-25-16.6-39.2-23c-10.1-4.6-20.7-8.3-32.4-9.9
		c-17.7-2.4-33.1,1.3-46,11.2c-7.9,6-13.6,13.2-18.3,21c-8.7,14.5-13.7,29.9-17.5,45.5c-5.3,21.9-10.1,43.8-15.3,65.7
		c-5.1,21.3-11.7,42.2-22.8,62.1C50,529.7,33.5,549.2,10.7,565c-3.3,2.3-7.1,4.1-10.7,6.2c0-2.3,0-4.7,0-7c2.1-1,4.5-1.8,6.3-3
		c21.1-14.5,36.6-32.3,48.4-52.3c11-18.6,17.9-38.3,22.7-58.4c5.5-23.2,10.2-46.5,15.3-69.8c3.6-16,7.8-31.9,15.3-47.1
		c4.4-9.1,10-17.8,17.9-25.3c8.5-8.1,18.8-14,32.1-16c10.4-1.5,20.6-0.6,30.6,2c12.4,3.2,23.9,7.9,34.2,14.1
		c12.8,7.7,25.1,15.9,37.3,24.2c15.4,10.5,30,21.7,45.5,32c43.2,28.7,93.6,45.2,148.4,53.5c28.8,4.4,57.7,3,86.4-1.1
		c38.2-5.4,74.9-15.1,111.4-25.2c40.3-11.2,80.6-22.4,121.1-33c28.9-7.6,58.5-13.4,88.6-17.3c19.7-2.6,39.5-3.7,59.4-2.1
		c31.7,2.5,57.9,13.8,80.3,31.3c24.8,19.4,43.9,42.1,59.6,66.5c28.1,43.7,45.5,90.1,52.3,138.9c4.2,30.6,4.2,61.2,2.9,91.9
		c-0.8,19.6-1.6,39.2,0.2,58.8c3.4,37,18.7,70.6,46,100.8c10.6,11.7,21.7,23.1,33.3,34.2c24.8,23.7,49.5,47.6,75.3,70.7
		c65.4,58.5,141.4,106.5,227.2,145.1c1.6,0.7,3,1.7,4.5,2.6C1498.3,1080,1494,1080,1489.8,1080z"/>
	<path class="st0" d="M1463.2,1080c-6.2-3.2-12.5-6.3-18.7-9.5c-81.3-41.4-155.4-89.7-222.2-145.1c-28-23.3-56.7-46.1-84.8-69.2
		c-15.4-12.7-29.4-26.3-41.4-41.2c-20.8-25.9-32.3-54.2-34.8-84.6c-1.9-22.7-1.9-45.5-2.5-68.3c-0.7-26.5-2.5-52.9-7.9-79.1
		c-8.8-43.5-25.9-84.6-55.5-122.1c-13.7-17.4-29.9-33.3-49.5-46.9c-28.7-19.9-62-30.1-100.1-30.9c-29.6-0.6-58.6,2.8-87.4,7.5
		c-38.1,6.3-75.2,15.6-112.5,24.1c-32.5,7.4-65,14.8-98.2,20.1c-18.3,2.9-36.7,4.8-55.3,5.5c-37.2,1.5-72.6-4.6-107-15.5
		c-35.3-11.2-66.9-27.1-95.5-46.9c-14.2-9.8-28.5-19.4-43.1-28.9c-10-6.5-20.7-12.1-32.5-16.5c-7.9-3-16-5.2-24.7-6.1
		c-15.2-1.7-28.5,1.5-39.9,9.5c-8.5,6-14.5,13.5-19.4,21.5c-6.7,11.1-11.5,22.7-14.9,34.6c-6.2,21.5-11.9,43.2-17.9,64.8
		c-5.7,20.6-12.9,40.9-24.2,60.2c-14.8,25.3-34.8,47.5-63.2,64.4c-3.1,1.9-6.8,3.2-10.2,4.8c0-2.3,0-4.7,0-7
		c2.2-0.8,4.7-1.3,6.5-2.5c19.6-11.6,35.1-26.1,47.8-42.5c16.1-20.8,26.6-43.4,33.2-67c6.4-22.9,11.9-45.9,17.9-68.9
		c3.6-13.9,7.7-27.8,14-41.2c4.8-10.1,10.7-19.7,19.8-27.8c8.9-8,19.8-13,33.3-14.1c8.1-0.7,16,0.4,23.8,2.3
		c12.7,3,24.4,7.8,34.8,14.2c13.9,8.4,27.3,17.5,40.8,26.3c14.8,9.7,29,20.1,44.4,29.2c39.6,23.5,84.3,38.1,132.9,44.9
		c21.6,3,43.4,2.7,65.1,0.9c39.7-3.4,77.9-12.1,116-21.2c35.8-8.6,71.4-17.6,107.3-25.9c28-6.5,56.5-11.4,85.5-14.2
		c21.3-2,42.6-2.7,63.9-0.1c31.9,3.9,58.4,16.1,81.3,33.7c24.8,19.1,43.9,41.6,59.4,66c22.7,35.8,36.7,73.7,43.3,113.5
		c5.3,31.8,6.1,63.8,5.6,95.8c-0.3,19.4-0.2,38.9,2.8,58.2c5.2,33.5,20.6,63.8,46.4,90.7c10.5,10.9,21.7,21.5,33.4,31.5
		c32.2,27.8,64.2,55.7,97.5,82.6c64.1,52,135.4,97.1,214.3,134.5c1.3,0.6,2.4,1.3,3.6,2C1470.8,1080,1467,1080,1463.2,1080z"/>
	<path class="st0" d="M1437.8,1080c-3.3-1.8-6.6-3.6-9.9-5.4c-82.2-43.3-159.9-91.2-230.7-145.8c-25.7-19.9-52.7-38.7-79.2-58
		c-17.9-13.1-35-26.7-49.9-42c-26.4-27.1-42-57.6-46.5-91.6c-1.9-14.8-2.8-29.7-3.5-44.6c-1.3-29.8-3.1-59.6-9.1-89.1
		c-7.8-38.5-21.3-75.5-46.3-109.4c-13.6-18.5-30.5-35-51-49.1c-30.6-21.1-66.4-31.5-106.7-32.7c-32.3-1-64.2,2.2-95.7,7.7
		c-43.5,7.7-86.9,15.9-130.3,24c-27.4,5.1-55,9.3-83,11.4c-45.1,3.5-87.9-3.2-128.8-18.5c-24.2-9.1-46.6-20.4-67.4-33.7
		c-12.2-7.8-23.9-16.1-36.3-23.6c-11.1-6.7-22.6-12.9-34.4-18.8c-8.2-4.1-17.5-6.6-27.2-7.9c-17.8-2.3-32.5,2.3-44.4,12.8
		c-6.7,5.9-11.7,12.7-15.9,19.9c-7,12.1-11.9,24.7-16.2,37.5c-6.9,20.7-13.2,41.6-20.5,62.2c-9.5,26.8-23.7,51.9-44.8,74.4
		C45.5,575.3,28,588.7,6.8,599.1c-2.1,1-4.6,1.5-6.8,2.3c0-2,0-4,0-6c3.8-1.8,7.8-3.4,11.4-5.4c27.6-15.4,47.8-35.7,63.5-59.2
		c14.5-21.6,23.4-44.8,30.6-68.5c6.6-21.8,13.1-43.7,20.3-65.3c2.8-8.4,7.2-16.4,11.4-24.5c3.7-7,8.9-13.3,15.4-18.9
		c13.2-11.4,29.4-15.2,48.4-11.9c12.4,2.1,23.7,6.3,33.9,12.1c13.2,7.5,26,15.5,38.7,23.6c12.4,7.8,24.2,16.3,36.8,23.9
		c34.9,21.1,73.6,36.1,116.5,43.8c25.6,4.6,51.5,5.1,77.6,3.1c39.9-3.1,78.5-11.3,117.2-19.1c35-7.1,69.9-14.4,105.1-20.9
		c30.5-5.7,61.5-9.1,93-8.5c30.4,0.6,59,6,85,19c15.3,7.6,28.8,17,41,27.5c27.3,23.6,46.3,51,60.2,80.9
		c12.7,27.3,20.3,55.6,24.6,84.5c4.6,30.3,5.5,60.8,6.2,91.3c0.5,21,2.5,41.8,9.3,62.2c9.2,27.6,26.4,51.7,49.4,73.4
		c16,15,34,28.5,51.8,42.1c28.9,22.1,57.3,44.6,86.4,66.6c64.3,48.6,134.1,91.7,208.9,129.7c1.9,1,3.7,2.2,5.5,3.3
		C1444.5,1080,1441.2,1080,1437.8,1080z"/>
	<path class="st0" d="M1413.7,1080c-1.8-1.1-3.4-2.4-5.3-3.4c-56.7-30.8-112.7-62.4-166.2-96.6c-22.2-14.2-43.2-29.5-65.1-44.1
		c-29.7-19.9-59.7-39.5-89.6-59.3c-22.1-14.6-43-30.3-60.8-48.4c-26.1-26.5-41.9-56.6-46.9-89.9c-3.1-20.6-4.6-41.4-6.4-62.1
		c-3-34.5-7.7-68.8-20.3-102c-10.5-27.7-25.5-53.6-48.4-76.3c-25.2-25-56.3-43.3-95.7-51.9c-15.6-3.4-31.4-5.1-47.6-5.6
		c-30.6-0.9-60.9,1.4-90.9,5.7c-39.1,5.6-78,11.9-117,17.9c-25.5,3.9-51.1,7.4-77.1,8.9c-42.5,2.4-82.3-4.7-120.1-19.9
		c-19.5-7.9-37.3-17.8-54.6-28.3c-14.2-8.7-28.3-17.6-42.6-26.2c-9.1-5.5-18.8-10.3-29.5-13.6c-4.9-1.5-10-2.8-15.1-3.6
		c-17.3-2.5-31.6,2-43.5,12c-7.3,6.2-13,13.3-17.1,21c-5.7,10.8-11,21.8-15.7,32.9c-8.4,19.8-15.5,40-24.3,59.7
		c-12,26.9-29.1,51.7-52.9,73.3c-15.4,14-33.2,25.8-54.1,34.4c-2.1,0.9-4.7,1.2-7,1.8c0-2,0-4,0-6c3.2-1.2,6.5-2.3,9.6-3.8
		c27.7-13,49.2-31,66.6-52.1c17.9-21.6,30.1-45.3,39.3-70c6.9-18.6,13.4-37.4,20.3-56c4.2-11.3,9.1-22.3,16.4-32.6
		c3.4-4.8,7.2-9.5,11.6-13.7c13.9-13.3,31.6-17.1,52.4-12.5c10.5,2.3,20.2,6.1,29,11.1c12.5,7.1,24.9,14.5,36.8,22.2
		c21,13.5,42.4,26.6,66.1,37.2c28.1,12.5,58,20.9,90.1,24.2c19.6,2,39.2,1.5,58.8-0.2c38.5-3.4,76.2-10.4,113.9-17.1
		c35.5-6.3,71-12.3,107.1-16.2c26.9-2.9,53.8-4.2,80.9-1.7c39.4,3.7,73.2,16.7,101.7,38.4c24.5,18.6,42.5,40.7,56,65.2
		c13.8,25,22.4,51.2,28,78.1c5.3,25.2,7.4,50.6,9,76c1.1,17.2,2.3,34.5,4.8,51.6c5.3,36.6,23.5,68.9,53.7,97
		c13.6,12.7,28.3,24.5,44.2,35.3c43.1,29.2,85.4,59,127.4,89.1c42.6,30.5,88.8,57.3,135.2,84c19.5,11.2,39.6,21.8,59.3,32.7
		c1.9,1,3.6,2.2,5.4,3.3C1420.4,1080,1417.1,1080,1413.7,1080z"/>
	<path class="st0" d="M1392.1,1080c-9.4-5.4-18.8-10.8-28.3-16.1c-46-25.9-92.4-51.4-137.9-77.8c-25.7-14.9-49.8-31.7-75-47.1
		c-29.4-18-59.3-35.6-89-53.4c-19.7-11.9-38.5-24.6-55.8-38.7c-36.3-29.3-59.6-64-68-104.6c-3.8-18.7-6.4-37.5-9-56.3
		c-3.7-27.8-6.6-55.7-15.4-82.9c-8.6-26.5-21.5-51.5-42.4-73.6c-33.8-35.6-78.5-56.1-134.6-61.1c-29-2.6-57.8-1.6-86.7,0.7
		c-40.2,3.2-79.8,9.7-119.5,15c-23.5,3.2-47,6.7-70.9,7.6c-50.7,2.1-96.5-9-137.8-32.2c-14-7.8-27.2-16.5-41-24.5
		c-10.6-6.1-21.5-11.8-32.8-17.1c-8.7-4.1-18.4-6.7-28.8-7c-10.4-0.3-19.9,1.8-27.7,7.1c-5.7,3.9-11.1,8.3-15.6,13.1
		c-9.3,9.9-15.5,21.1-21.1,32.5c-8.2,16.7-15.9,33.5-24.3,50.2c-12.5,24.9-28.3,48.3-49.4,69.3c-18.1,18-39.5,33.1-65.5,43.7
		c-5.1,2.1-10.4,3.7-15.6,5.6c0-2.3,0-4.7,0-7c2.7-0.8,5.6-1.5,8.2-2.5c27.1-10.6,49.1-25.9,67.7-44.6c22.6-22.7,38.7-48.3,51-75.4
		c7.4-16.4,14.1-33,21.8-49.3c4.7-10,10.3-19.8,16.6-29.3c3.8-5.7,9-11,14.6-15.7c12.6-10.5,28.1-13.6,45.8-10
		c9.3,1.9,18,5.1,25.9,9.3c10.7,5.7,21.1,11.7,31.5,17.8c13.8,8.1,27.1,16.6,41.1,24.4c28,15.8,58.9,26.2,92.7,30.9
		c22.3,3.1,44.6,3.1,67,1c37.2-3.5,73.8-9.5,110.6-15c34.3-5.2,68.7-9.6,103.6-11.2c29.2-1.4,58.4-0.9,86.9,5.1
		c43.7,9.2,77.9,29.3,104.4,57.9c20.8,22.5,34.2,47.7,43.1,74.5c6.5,19.5,10.4,39.3,12.8,59.4c2.7,22.8,4.8,45.7,7.8,68.6
		c3.6,28.2,11.5,55.5,29,80.6c9.7,14,21.4,26.9,35,38.8c16.8,14.7,35.2,28,55,40.1c46.9,28.6,92.9,58.2,138.3,88.3
		c50.4,33.3,104.7,62.5,158.3,92.4c9.3,5.2,18.7,10.3,28.1,15.6c1.5,0.8,2.9,1.9,4.3,2.9C1398,1080,1395.1,1080,1392.1,1080z"/>
	<path class="st0" d="M1370.5,1080c-4.3-2.7-8.4-5.6-12.9-8c-23.8-12.8-47.6-25.6-71.5-38.2c-45.2-23.9-89.6-48.7-133.2-74.5
		c-31.5-18.6-64.2-36-96.5-53.8c-23.3-12.8-46.2-26-67.7-40.7c-27.6-18.9-51.2-40.4-68.6-65.9c-13.1-19.2-21.3-39.8-26.4-61.1
		c-5-20.9-8.9-42-12.9-63c-4.4-23.2-8.5-46.4-17.7-68.9c-9.7-23.7-23.7-45.5-45.2-64c-30.1-25.9-67.6-40.8-111.2-46.3
		c-32-4.1-64-3.7-96.2-1.5c-40.5,2.8-80.4,8.5-120.4,14c-18.5,2.6-37.2,4.7-56.1,4.7c-40.2,0-77.3-8.7-111.1-25.7
		c-12.1-6.1-23.2-13.4-34.9-20c-9.1-5.2-18.1-10.5-27.7-15c-6.5-3-13.8-5.2-21-6.8c-14.4-3.2-27.9-0.9-39.1,7
		c-6.3,4.4-11.9,9.6-16.8,14.9c-9.7,10.6-16.5,22.6-23.4,34.5c-11.4,19.8-22.6,39.7-36.7,58.5c-13.9,18.5-29.6,35.9-49,51.1
		C54.7,626.5,32.4,638.3,6.6,646c-2.2,0.6-4.4,1.1-6.6,1.6c0-2.3,0-4.7,0-7c2.4-0.5,4.9-0.8,7.2-1.6c31.1-10.1,56.3-26.2,77.7-46.5
		c23.1-21.9,40.3-46.7,54.6-72.7c8.2-14.9,15.7-30,24.3-44.8c5.1-8.8,11.2-17.3,17.9-25.4c4.1-4.9,9.7-9.3,15.5-13.2
		c10.6-7,23.1-8.7,36.4-6.4c9.6,1.6,18.6,4.7,26.7,9c11.9,6.3,23.5,13.1,35.1,19.8c9.2,5.3,18,11.1,27.6,16.1
		c39.9,20.9,83.7,30.6,131.6,28.1c23.1-1.2,45.7-4.6,68.4-7.7c35.2-4.9,70.4-9.7,106-12.3c32.5-2.4,65-3,97.4,1.4
		c65.4,8.9,112.1,37.7,142,84.2c13.5,20.9,21.6,43.3,26.1,66.4c4.4,22.7,7.8,45.5,11.5,68.2c3.1,19,6.8,37.8,13.1,56.3
		c10.6,31.4,30.5,58.7,58.3,82.5c21.3,18.3,45.5,34,70.8,48.7c34.9,20.1,70,39.9,104.7,60.2c25.5,14.9,50.1,30.9,75.9,45.4
		c40.2,22.6,81,44.4,121.6,66.6c8.7,4.8,17.3,9.7,25.9,14.5c1.2,0.7,2.1,1.6,3.2,2.3C1376.4,1080,1373.5,1080,1370.5,1080z"/>
	<path class="st0" d="M1350.2,1080c-9.2-5.3-18.2-10.9-27.7-15.8c-25.1-13-50.7-25.5-75.8-38.6c-32.9-17.1-65.3-34.7-98.2-51.7
		c-39.2-20.4-78.7-40.6-118.1-60.7c-29.7-15.2-58.7-31.1-85.2-49.7c-29.9-20.9-55-45-72.6-73.6c-12.1-19.7-20-40.6-26-61.8
		c-6.7-23.7-12.7-47.5-19.2-71.2c-4.6-16.7-10.5-33.1-19.1-48.9c-16.3-30.1-41.8-53.7-78.3-69.5c-22-9.5-45.7-14.9-70.4-17.5
		c-37.3-4-74.7-3.3-111.9,0.7c-28.3,3-56.4,6.8-84.5,10.9c-46.9,6.8-91.8,2.7-134.7-13.7c-11-4.2-21.3-9.6-31.7-14.7
		c-8.8-4.4-17-9.3-25.7-13.9c-7.2-3.8-14.9-7-23.4-8.9c-12.8-2.9-24.9-1.5-35.7,4.6c-5.6,3.2-11.1,6.9-15.4,11.1
		c-7.1,7-13.7,14.5-19.6,22.2c-11.2,14.6-21.5,29.6-32.6,44.3c-16.2,21.3-34.4,41.4-56.8,59c-22.6,17.7-48.6,31.1-79.1,38.7
		c-2.8,0.7-5.7,1.1-8.6,1.6c0-2.3,0-4.7,0-7c2.8-0.4,5.8-0.6,8.5-1.3c31.7-8.6,58.1-23.6,80.8-42.9c22.9-19.5,41-41.7,56.9-65.1
		c9-13.3,17.4-26.8,26.6-40c5.7-8.2,12.2-16.1,19.1-23.7c3.9-4.3,9-8.1,14.2-11.4c11.7-7.5,25-9.3,39.4-6.1
		c10.3,2.3,19.5,6.4,28.1,11.3c9.3,5.2,18.5,10.6,27.7,16c25.7,15.2,54.5,24.8,85.7,30c23.9,3.9,47.9,3.9,71.9,1
		c25.3-3.1,50.4-6.8,75.7-9.9c41.4-5.1,83.1-8.1,125.1-5.6c27.4,1.7,54,6,79,15.5c44.4,16.7,74.3,44,92.3,79.9
		c9.8,19.6,15.5,40,20.3,60.6c6.1,26.3,10.9,52.9,19.1,78.9c8.4,26.7,20.6,52,40.7,74.8c16.2,18.4,35.3,34.6,56.9,49.1
		c19.9,13.3,40.5,25.9,62.4,37.1c55.2,28.3,109.2,58,163.1,87.8c44.3,24.6,90.2,47.4,135.2,71.2c10.4,5.5,20.3,11.5,30.4,17.2
		C1356.1,1080,1353.2,1080,1350.2,1080z"/>
	<path class="st0" d="M1329.9,1080c-8.8-4.9-17.2-10.3-26.3-14.7c-33.6-16.5-67.5-32.6-101.2-49.1c-37.6-18.4-74.8-37.2-112.6-55.4
		c-30-14.5-60.6-28-90.7-42.4c-30.5-14.5-59.8-30.4-86.8-48.8c-26-17.6-48.9-37.5-67.7-60.3c-14-16.9-24.6-35.2-32.5-54.4
		c-9-22-17.1-44.2-25.3-66.4c-7.5-20.3-14.5-40.6-25.5-59.9c-12.6-22.1-30.2-41-55.3-55.3c-22.4-12.7-47.6-20.2-74.5-24.3
		c-32.3-4.9-64.8-5.6-97.3-2.4c-27,2.6-53.9,6.4-80.8,9.8c-18.2,2.3-36.4,4.2-54.9,3.8c-34.5-0.7-66.6-8.4-97.4-20.3
		c-9.3-3.6-18.1-7.9-27.4-11.6c-7-2.8-14.1-5.5-21.4-7.5c-13-3.5-25.5-1.8-37,4.1c-9.2,4.7-16.8,10.8-23.3,17.6
		c-9.4,9.7-18.4,19.6-27.3,29.6c-17.7,19.9-35.7,39.5-57,57.1c-20.9,17.2-44.2,31.7-72.5,40.5c-9.4,2.9-19.3,5-29,7.3
		c-2,0.5-4.2,0.3-6.2,0.5c0-2,0-4,0-6c37-6.5,68.2-21.3,94.9-42.2c23.2-18.1,42.1-38.8,59.9-60.3c10.2-12.3,20.2-24.8,30.5-37
		c6.7-8,14.3-15.4,23.7-21.5c10.2-6.7,21.8-10.5,35.2-8.6c6.7,1,13.5,3,19.6,5.5c9.5,3.9,18.7,8.6,27.8,13.1
		c25.3,12.7,52.7,21.2,82,25.9c22.6,3.6,45.4,3.7,68.2,1c25.3-3,50.4-6.9,75.7-10c38-4.7,76.1-6.2,114.4-2.4
		c27.7,2.7,54.3,8.4,78.8,19.5c36,16.4,59.7,41,74.9,71.2c9.4,18.6,15.3,37.9,21.6,57.3c7,21.4,13.8,42.8,21.2,64.1
		c17.8,50.9,55,91.5,105.9,124.7c22.7,14.8,46.4,28.7,71.7,40.6c74.7,35.2,147.3,73.1,220.6,110c29.3,14.7,58.9,29,88.2,43.7
		c8.4,4.2,16.1,9.1,24.2,13.7C1335.8,1080,1332.9,1080,1329.9,1080z"/>
	<path class="st0" d="M1309.6,1080c-6.8-3.9-13.4-8.1-20.6-11.5c-21.6-10.2-43.4-20.2-65.2-30.1c-49.4-22.6-98.7-45.4-148.4-67.7
		c-29.6-13.3-60-25.4-89.8-38.5c-37.9-16.7-74.5-35.2-107.6-57.6c-32-21.7-60.6-45.8-82.5-74.5c-13.9-18.1-24.5-37.5-34.1-57.2
		c-10.5-21.4-20-43.1-30.6-64.4c-5.9-11.8-12.4-23.5-20-34.7c-25.3-37.6-65.6-59-118-66.6c-28.8-4.2-57.7-4.1-86.6-1.4
		c-25.4,2.4-50.7,5.3-75.9,8.7c-43.8,5.9-86.3,2.2-127.9-9.8c-11.5-3.3-23-6.7-34.6-9.8c-6-1.6-12.1-2.9-18.3-3.9
		c-11.9-1.9-23.4-0.1-33.5,5.1c-7.6,3.9-14.9,8.3-21.3,13.4c-10.6,8.4-20.4,17.4-30.3,26.4c-16.5,15-32.9,30.2-51.4,43.8
		c-19.7,14.5-41.2,26.7-66.4,34.6c-12.6,4-25.7,6.7-39.1,8.5c-2.5,0.3-5,0.2-7.5,0.3c0-2,0-4,0-6c29.2-3.3,55.7-12,79.8-25.5
		c16.8-9.4,32-20.4,45.5-32.7c15.9-14.6,30.9-29.7,46.5-44.5c9.2-8.7,18.5-17.5,28.2-25.9c4.1-3.5,9.1-6.5,14.1-9.3
		c12.2-6.7,25.6-8.7,39.8-5.1c8.8,2.3,17.5,5,25.9,8.1c22.8,8.2,46.1,15.1,70.5,19.5c24.4,4.4,49.1,5,73.8,2.2c24.1-2.7,48-6.2,72-9
		c34.7-4,69.4-5.5,104.3-1.5c24.5,2.9,47.8,8.6,69.3,18.5c27.5,12.7,47.6,30.8,62.1,53.1c8.4,12.8,15,26.2,20.9,39.9
		c10.5,24.6,20.6,49.3,31.6,73.8c9.6,21.5,21.3,42.3,37.5,61.4c25.7,30.4,58.1,55.7,95,77.5c27.6,16.4,56.5,31.3,86.9,44.3
		c82.1,35.2,161.3,74.1,241.5,111.7c16.9,7.9,33.9,15.8,50.7,23.9c7.9,3.8,15.2,8.4,22.8,12.6C1315.5,1080,1312.6,1080,1309.6,1080z
		"/>
	<path class="st0" d="M1289.3,1080c-7-3.7-13.6-7.9-20.9-11.1c-28.2-12.5-56.7-24.7-84.9-37.1c-63.7-28.1-128.5-54.6-194.2-79.7
		c-41-15.6-80.4-33.5-117.2-54.9c-37.3-21.7-70.7-46.8-99.8-75.4c-17-16.6-30.5-35-42.6-54.1c-13.4-21.1-26-42.5-39.3-63.6
		c-7.7-12.3-15.8-24.5-24.4-36.4c-8.1-11.2-18.4-21.2-30.6-30c-23.2-16.6-50.6-25.8-81.3-29.4c-26.5-3.2-53.2-2.5-79.7-0.4
		c-24.6,1.9-49.2,4.3-73.7,6.7c-31.9,3.1-63.3,1.2-94.4-4.7c-15.4-2.9-30.9-5.4-46.5-7.9c-21.5-3.4-41.3,0.1-58.7,10.7
		c-10.9,6.6-21.3,13.8-31.5,21c-12.8,9-25,18.5-37.8,27.6c-12.9,9.2-26.7,17.6-41.4,24.9c-26.1,13-54.7,20.1-85.4,21.9
		c-1.7,0.1-3.3-0.1-5-0.1c0-2,0-4,0-6c31.8-2.1,61.1-9.9,87.8-23.8c17.2-9,32.8-19.5,47.4-31c13.2-10.4,26-21.1,39.1-31.5
		c7-5.6,14.3-10.9,21.6-16.2c2.8-2,5.9-3.8,8.9-5.6c16.4-9.8,34.6-12.9,54.5-8.9c16,3.2,31.9,6.7,47.8,10.2
		c30,6.6,60.4,10.1,91.6,7.4c14.7-1.3,29.4-2.7,44-4.4c24.5-2.8,49-5.4,73.7-6.2c23.8-0.8,47.4,0.3,70.5,4.9
		c41.4,8.3,73.1,27,95.4,55.8c12.8,16.5,22.2,34.2,31.9,51.9c11.9,21.7,23.8,43.3,36.2,64.8c19.3,33.5,47.1,62.2,80.1,87.9
		c35.6,27.7,75.7,50.4,118.9,69.8c25.2,11.3,50.8,22.1,76.7,32.3c55.6,22,109.7,46.3,163.8,70.4c28.2,12.6,56.4,25,84.5,37.8
		c8.2,3.7,15.8,8.3,23.6,12.5C1295.2,1080,1292.3,1080,1289.3,1080z"/>
	<path class="st0" d="M1269,1080c-7.9-3.9-15.4-8.3-23.6-11.6c-87.4-36-174.7-72.2-265.3-103c-39.3-13.3-77.3-28.9-113.2-47.3
		c-51.5-26.4-96.6-58.7-136.6-95.4c-18-16.5-32.3-35.2-46.9-53.7c-15.1-19.2-29.8-38.6-45.4-57.6c-7.9-9.7-16.6-19.1-26-27.9
		c-24.2-22.8-55.5-35.6-92.5-40c-26.5-3.2-53.2-2.7-79.8-1.5c-21.5,1-43,2.7-64.5,4.1c-27.1,1.7-54,0.3-80.9-3
		c-15.2-1.8-30.6-2.9-46-3.5c-16.2-0.6-31.6,2.6-45.7,8.8c-9.4,4.2-18.5,8.8-27.3,13.7c-13.5,7.5-26.4,15.7-39.8,23.3
		c-17.5,10-35.8,19-55.8,25.8c-24.9,8.4-51.1,11.6-77.9,12.1c-0.6,0-1.2-0.2-1.8-0.3c0-2,0-4,0-6c39.4-1,75.9-9.4,108.3-27.5
		c15.5-8.7,30.4-18.1,45.4-27.4c9.3-5.8,18.2-12,27.6-17.8c7-4.3,14.4-8.3,21.9-12c16.4-8.1,34.5-11.1,53.5-9.2
		c17.8,1.8,35.6,4,53.2,6.6c29.9,4.3,59.7,4,89.7,1.4c34-3,68.1-5.9,102.4-5.5c15.9,0.2,31.7,1.4,47.2,4.3
		c32.9,6,59.9,19.5,81.2,40.3c10.2,9.9,18.9,20.6,26.7,31.7c13.3,18.7,26.2,37.5,39.4,56.2c6.7,9.5,13.8,18.9,20.7,28.3
		c23.9,32.5,56.2,59.4,90.9,84.6c46.6,33.9,99.8,59.6,156.4,81.3c35.9,13.8,72.7,26.3,108.3,40.6c61.6,24.8,122.6,50.6,183.7,76.1
		c7.4,3.1,14.2,7.2,21.3,10.8C1274.9,1080,1272,1080,1269,1080z"/>
	<path class="st0" d="M1247.4,1080c-1.6-1-3-2.3-4.8-3.1c-8.1-3.5-16.3-7.2-24.6-10.4c-60.3-23.1-120.4-46.6-182.1-67.4
		c-35-11.9-70.4-22.9-105.3-34.9c-18.2-6.2-36-13.3-53.7-20.5c-39.6-16-75.7-36-109.1-59.3c-16.8-11.7-33.6-23.5-50-35.6
		c-25.2-18.5-46.9-39.5-67.7-61.2c-21-21.9-42-43.8-65.9-63.8c-21.3-17.8-46.1-31.4-75.9-38.7c-17.3-4.2-35-6.3-53-7.3
		c-29.2-1.6-58.3-1.3-87.5,0.4c-30.5,1.8-60.8,1.1-91.2-0.9c-13-0.9-26.2-0.9-39.3-0.3c-17.3,0.8-33.7,4.9-49.1,11.1
		c-8.8,3.6-17.5,7.5-26.1,11.4c-9.2,4.1-18.4,8.3-27.5,12.5c-39.6,18-82.1,27.2-127.8,26.6c-2.3,0-4.6,0.3-6.9,0.5c0-2.3,0-4.7,0-7
		c25-0.3,49.8-1.8,73.9-8c18.6-4.8,36.1-11.5,52.7-19.5c14.1-6.8,27.8-14.1,41.7-21c7.3-3.7,14.7-7.3,22.2-10.7
		c19.2-8.6,39.9-13,61.9-12.4c14.6,0.4,29.1,1.3,43.6,2.6c28.7,2.7,57.4,2,86.1,0.2c34.4-2.1,68.8-3.1,103.3-0.6
		c45.1,3.3,83.1,17.6,112.2,45.3c14.2,13.5,27.4,27.7,40.5,41.9c13.3,14.3,26,28.9,38.7,43.6c21.9,25.1,47.8,47.3,76.1,67.8
		c10.5,7.6,21.1,14.9,31.8,22.4c47.8,33.6,102.6,58.3,160.6,78.8c36.1,12.7,73,24.1,108.7,37.4c61.5,23,122.5,47,183.6,70.8
		c6.5,2.5,12.3,6.2,18.5,9.4C1253.4,1080,1250.4,1080,1247.4,1080z"/>
	<path class="st0" d="M1225.9,1080c-3.3-1.7-6.3-3.8-9.8-5.1c-13.5-5.1-27.1-10.2-40.8-15c-79-28.2-158.9-54.8-240.2-78.5
		c-31.2-9.1-61.4-19.8-91-31.9c-32.1-13-62.3-28.3-90.2-46.5c-36.2-23.7-72.8-47-106.3-73.1c-17.3-13.5-33.9-27.6-50.8-41.5
		c-15-12.3-30.8-23.9-47.6-34.7c-34.9-22.4-74.7-35-119.2-38.7c-28.9-2.4-57.8-3.4-86.8-2.3c-26.4,1-52.9,0.9-79.3-0.2
		c-32.4-1.3-63.6,2.6-93.5,12.9c-14.1,4.9-28.4,9.5-42.8,14c-32.7,10-66.6,15-101.7,14.8c-8.7,0-17.3,0.1-26,0.1c0-2.3,0-4.7,0-7
		c24.1,0.4,48.2,0,72-3.8c21.7-3.5,42.3-9.5,62.3-16.8c13.1-4.8,26-9.8,38.8-14.9c27.2-10.9,56-15.8,86.4-14.8
		c12.7,0.4,25.3,1.2,38,1.2c18.8,0.1,37.6-0.1,56.4-0.6c32.8-1,65.5-0.8,98.2,2.4c43.9,4.2,81.7,18.6,114.1,42.3
		c22.4,16.4,43,34.2,62.4,52.8c46,44,100.3,81,156.9,116c34.5,21.4,73,37.7,113.1,51.4c34.3,11.7,69.1,22.6,103.9,33.5
		c54.5,17,107.7,36.5,160.9,55.7c18.5,6.7,36.8,13.5,55.1,20.5c6.1,2.3,11.7,5.3,17.5,8C1232.6,1080,1229.2,1080,1225.9,1080z"/>
	<path class="st0" d="M1361.6,0c0.8,0.7,1.4,1.6,2.3,2.1c18.5,9.8,30.4,23.5,38.3,39.6c6.5,13.3,10.5,27.2,13.5,41.3
		c10.7,48.5,24.4,96.5,37.9,144.6c13.5,48.1,24.6,96.5,31.9,145.4c4.5,30.4,8,61,11.9,91.5c4.7,36.5,9.2,73,18.9,108.9
		c7.3,26.8,17.5,52.8,34.1,77c13.9,20.2,31.4,38.1,54.6,52.3c21.8,13.3,45.7,22.2,73.7,22.9c18.1,0.4,35.8-1.9,53.1-6
		c19.9-4.8,38.9-11.4,57.1-19.2c46.1-19.7,89.1-43.1,128.4-70.6c0.8-0.5,1.7-0.9,2.5-1.3c0,3.7,0,7.4,0,11.1
		c-5.6,4.1-10.9,8.4-16.8,12.3c-33.1,22-67.9,42.1-105.1,59.7c-18.7,8.9-38.2,16.6-58.5,23c-16.2,5.1-32.9,8.6-50.2,10.2
		c-23.6,2.1-45.9-1.1-66.8-10.1c-22.2-9.6-40.8-22.7-56.8-38c-29.2-27.9-47.6-60-58.1-95c-7-23.5-11.2-47.4-14-71.5
		c-4.2-36.9-7.7-73.8-11.7-110.7c-5.7-52.6-14.9-104.9-28.4-156.6c-10.1-38.7-21.3-77.2-31.6-115.9c-6.1-22.9-11.4-46-17.3-69
		c-3.1-12.2-7.1-24.1-13.2-35.6c-9.5-17.7-24.2-31.7-46.3-40.4c-1-0.4-1.8-1.2-2.7-1.9C1348.9,0,1355.3,0,1361.6,0z"/>
	<path class="st0" d="M1394.6,0c2.4,2.1,4.8,4.2,7.2,6.3c12,10.8,19.8,23.4,24.3,37.2c4.4,13.8,8.3,27.7,11.2,41.7
		c8.7,42.5,20.5,84.5,32.7,126.5c15.8,54.2,29.1,108.8,39,163.9c6.1,33.7,12,67.3,18.9,100.9c8.5,41.1,21.6,81.3,40.6,120.2
		c8,16.3,18,31.8,32.1,45.4c32.7,31.7,74.8,44,125.7,38.4c18.6-2.1,36.3-6.5,53.5-12.1c49.2-16.1,94.2-37.9,135.6-64.3
		c1.5-0.9,3-1.8,4.5-2.6c0,3.7,0,7.4,0,11.1c-5.2,3.6-10.3,7.5-15.7,10.9c-35.6,22-73.3,41.5-114,57.1
		c-20.6,7.9-41.9,14.5-64.4,18.1c-49.6,7.9-92.1-2.6-127.3-31.3c-7-5.7-13.3-12.2-19.1-18.7c-16.2-18.3-26.5-38.9-35-60
		c-11.6-28.6-20-57.9-25.3-87.6c-6.1-34.5-11.4-69.1-16.8-103.7c-8.7-55.9-20.6-111.3-36-166.3c-9.4-33.7-18.9-67.3-27.8-101.1
		c-5.5-21-9.8-42.2-14.8-63.2c-1.1-4.8-2.6-9.5-4.1-14.2c-6.7-20.4-18-38.6-39-52.3C1385.3,0,1390,0,1394.6,0z"/>
	<path class="st0" d="M1204.3,1080c-4.8-2.1-9.4-4.4-14.4-6.1c-26.5-8.8-53.1-17.4-79.6-26.2c-62.7-20.6-126.6-38.4-190.6-56.3
		c-31.5-8.8-62.4-18.7-92.7-30c-37.1-13.8-71.8-30.5-103.9-50.8c-55.7-35.2-112.2-69.6-166.6-106c-16.2-10.8-33.8-20.1-52.3-28.3
		c-33.6-14.8-69.7-22.8-107.8-26.1c-28-2.4-56-3.4-84.2-3c-20.3,0.3-40.6,0.2-60.9-0.3c-33.3-0.9-65.8,2.2-97.7,9.8
		c-24.7,5.9-50,10-75.7,12.1c-20.9,1.7-41.8,1.7-62.7,0.9c-5.1-0.2-10.1-0.3-15.2-0.5c0-2.3,0-4.7,0-7c48.4,3,95.8-0.8,141.9-13.4
		c9.6-2.6,19.2-5.1,28.8-7.7c23.7-6.3,48-9.3,72.9-9.3c35.9,0,71.9-0.1,107.8,0.1c27.5,0.1,54.9,1.8,82,5.6
		c37.7,5.3,71.7,17.5,102.7,35.2c17.5,10,34,21.1,49.6,32.8c34.6,26.1,71,50.6,108.3,74.3c10.1,6.4,20.2,12.8,30,19.4
		c43.3,29.3,91.9,51.6,144.1,69.4c38.9,13.2,78.7,24.4,118.4,35.8c70.9,20.4,140.2,44,209.4,67.8c6.4,2.2,12.3,5.1,18.5,7.7
		C1211.1,1080,1207.7,1080,1204.3,1080z"/>
	<path class="st0" d="M1422.6,0c0.3,0.6,0.5,1.3,0.9,1.8c13.7,13.7,21.3,29.7,25.5,46.6c4.2,16.6,7.7,33.3,11.1,50
		c6.6,31.9,15.5,63.5,25.2,94.8c19.1,61.7,35.6,123.7,50.1,186.2c13.7,58.8,32.8,116.4,59.7,172.2c7.3,15.2,15.8,30,27.3,43.6
		c14.5,17.1,32.8,30.6,57.5,38c21.3,6.4,43.3,7.5,65.6,5c25.1-2.8,49-8.9,72.2-16.9c33.2-11.5,65.1-24.9,94.3-42
		c2.7-1.6,5.3-3.3,7.9-5c0,4,0,8,0,12.1c-14.9,8.2-29.3,17-44.7,24.6c-31.2,15.5-63.8,29-99,38.2c-18.1,4.7-36.6,8.2-55.8,8.7
		c-49.8,1.5-87.1-15.5-113.8-48.2c-11.3-13.9-19.3-29-26.3-44.5c-21.2-46.4-36.6-94-47.4-142.6c-10-45.2-19.5-90.4-30.6-135.5
		c-8.8-35.5-19.4-70.7-29.7-105.9c-10.2-35.1-18.9-70.4-26-106c-2.7-13.6-5.9-27.1-11.4-40.1c-5-11.9-11.9-22.9-22.3-32.4
		c-0.8-0.7-1.3-1.7-1.9-2.5C1414.9,0,1418.7,0,1422.6,0z"/>
	<path class="st0" d="M1446.7,0c0.2,0.6,0.2,1.4,0.6,1.9c12.2,14.7,18.4,31.2,22.2,48.3c4.6,20.6,8.5,41.3,13.3,61.9
		c7.2,31.2,17.3,61.8,27.1,92.5c15.8,48.8,31,97.8,47.1,146.6c17.2,52.2,38,103.6,63.5,153.7c9.4,18.4,20.6,36,35.3,52.1
		c10.9,11.9,23.5,22.4,39.9,29.7c22.4,10.1,46.7,12.7,71.8,10.2c13.8-1.4,27.6-3.5,41-6.5c36.4-8.3,70.6-20.5,102.4-36.9
		c3.2-1.6,6.1-3.6,9.2-5.4c0,4,0,8,0,12.1c-0.9,0.4-1.9,0.7-2.7,1.2c-36.4,20.7-76.3,35.8-118.9,46.5c-17.6,4.4-35.6,7.5-54.1,8
		c-26.1,0.8-50.4-3.6-71.9-15.8c-15-8.5-26.4-19.7-36.2-31.9c-14.2-17.8-24.4-37.1-33.5-56.8c-25.2-54-45-109.2-60.3-165.4
		c-15.9-58.3-33.8-116.1-51.8-174c-10.3-33.2-18.2-66.7-24.9-100.5c-2.6-13.2-6.2-26.3-10.3-39.3c-3.3-10.6-9.4-20.4-17.3-29.5
		c-0.7-0.8-1-1.8-1.5-2.7C1439.9,0,1443.3,0,1446.7,0z"/>
	<path class="st0" d="M1180.2,1080c-2.3-1.1-4.5-2.4-6.9-3.1c-29.8-9.1-59.6-18.1-89.4-27.1c-56.3-17-113.9-31-170.9-46.3
		c-29.8-8-59.3-16.8-88.6-25.9c-47.5-14.8-91.5-34.7-132-59.2c-52.5-31.7-107.2-60.9-162.5-89.4c-31.8-16.3-65.3-29.6-102.2-37.1
		c-25.3-5.2-51.1-7.8-77-9.3c-19.2-1.1-38.4-1.4-57.6-2c-23.9-0.7-47.8-1.1-71.6-2.2c-27-1.3-53.6,0.4-80.3,3.5
		c-39.9,4.8-79.9,6.1-120.2,4c-6.9-0.4-13.9-0.3-20.8-0.4c0-2.3,0-4.7,0-7c5.7,0.1,11.4,0,17.1,0.4c44.8,2.4,89.2-0.3,133-7.8
		c27.7-4.7,55.6-6.5,83.8-5.8c27.7,0.7,55.4,0.8,83.1,1.1c35.6,0.3,71,2.7,105.9,8.5c38.8,6.5,74.2,19.5,106.6,37.4
		c29.8,16.5,59.1,33.6,88.4,50.7c25.6,14.9,51.4,29.5,76.1,45.3c50.7,32.2,106.7,56.7,167.4,74.5c43,12.6,86.5,24.2,129.8,36.2
		c62.1,17.1,123.4,35.8,184.4,55.3c5.5,1.8,10.7,4,16,6.1C1187.8,1080,1184,1080,1180.2,1080z"/>
	<path class="st0" d="M1468.2,0c0.2,0.6,0.2,1.4,0.6,1.9c10.7,14.8,15.9,30.9,19.6,47.5c5.3,23.6,10,47.2,16.1,70.7
		c9.6,36.9,23.5,73,37.1,109.1c25.6,68.2,55.2,135.4,87.7,201.8c12.3,25.2,26.9,49.5,45.6,72.2c10.1,12.3,21.5,23.6,35.5,33.3
		c20.8,14.4,45,21.5,72.6,21.5c15.7,0,31.2-1.6,46.4-4.6c26.5-5.3,52.1-12.7,76.1-23.3c5-2.2,9.7-4.7,14.6-7.1c0,3.7,0,7.4,0,11.1
		c-22.1,12.3-46.6,21-71.9,28.3c-22.1,6.4-44.7,11.1-68.3,12.5c-22.2,1.3-43.4-1.1-63.3-9.6c-13.4-5.7-24.7-13.4-34.6-22.5
		c-16.3-15-28.7-31.9-39.5-49.6c-15.6-25.3-27.6-51.8-39.5-78.3c-26.7-59.2-48.9-119.4-69.9-180c-12.2-35.2-25.4-70.2-34.7-105.9
		c-6.1-23.4-10.8-47.1-16.1-70.7c-2.8-12.7-5.4-25.5-11.5-37.5c-3.6-7.1-8.4-13.8-12.7-20.7C1461.5,0,1464.9,0,1468.2,0z"/>
	<path class="st0" d="M1153.5,1080c-2.6-1-5.1-2.2-7.8-3c-63.3-18.4-127.2-35.4-192-50.3c-53.6-12.3-106.8-25.7-158.7-42.1
		c-39.6-12.5-77.1-28.2-112.6-46.9c-28-14.8-55.6-29.9-84-44.2c-41.1-20.6-83.9-38.9-128.6-54.3c-35.2-12.1-72-19.1-110.1-22.7
		c-32.4-3.1-64.9-4.3-97.4-5.9c-17-0.9-34.1-2.8-50.9-5c-29.4-3.9-58.9-3.9-88.6-2.6c-34,1.4-68.1,1.2-102.1-1
		c-6.9-0.4-13.9-0.9-20.8-1.4c0-2.3,0-4.7,0-7c11.4,0.7,22.7,1.4,34.1,2c36.8,2.1,73.5,0.4,110.2-2.1c25.8-1.8,51.5-1.3,77.2,1.3
		c24.6,2.5,49.3,3.4,74,3.7c34.9,0.5,69.6,3.5,104,8.3c37,5.2,71.5,16.1,104.4,30.3c53.8,23.1,105.6,48.7,155.3,76.9
		c23.7,13.5,47.5,26.9,72.8,38.5c37.6,17.3,77.6,30.4,118.4,42.1c45.3,13,91.5,23.9,137.4,35.3c57.2,14.3,113.8,30.2,169.9,47
		c2.9,0.9,5.7,2.1,8.5,3.2C1162,1080,1157.8,1080,1153.5,1080z"/>
	<path class="st0" d="M1488.5,0c0.1,0.6-0.1,1.4,0.3,1.9c9.9,15.1,15.2,31.3,18.3,47.9c13,71.3,40.9,139.1,75.2,205.6
		c20.4,39.6,40.5,79.2,61.2,118.6c15.9,30.4,35,59.5,58.1,86.9c10.4,12.3,22.1,23.7,35.6,34c27,20.7,59.2,29.1,96.3,25.8
		c28.2-2.5,55-9.1,80.1-19.8c2.2-0.9,4.3-2.1,6.4-3.2c0,3.7,0,7.4,0,11.1c-20.3,10.4-42.5,17.1-65.6,22.2
		c-16.8,3.6-33.8,6.1-51.3,6.1c-29.9-0.1-55.7-8.2-77.7-24.3c-19.9-14.6-35.2-32-48.7-50.5c-17.6-24.1-32.6-49.3-45.1-75.3
		c-23-47.7-46.3-95.4-68.5-143.3c-18-38.8-33.5-78.3-45.8-118.6c-7.2-23.5-12.2-47.2-17.2-71c-3.8-18.2-8.7-36.2-20.1-52.6
		c-0.3-0.4-0.2-1-0.4-1.5C1482.6,0,1485.6,0,1488.5,0z"/>
	<path class="st0" d="M1121.8,1080c-2-0.8-4-1.7-6.1-2.3c-62.1-17.2-125-31.9-188.6-45.1c-52.4-10.8-104-23.5-154.5-38.9
		c-44.1-13.5-85.9-30.7-125.8-50.7c-34.5-17.3-69.2-34.2-105.8-48.7c-48.9-19.3-99.6-34.5-153.2-42.8c-24.2-3.8-48.8-6.1-73.3-8.8
		c-14.9-1.6-29.8-2.6-44.8-3.7c-19.8-1.5-39.3-4.6-58.5-8.9c-28.3-6.3-57.1-9.2-86.4-9.2c-13.3,0-26.7,0.1-40-0.3
		c-22.6-0.7-45.2-1.8-67.8-2.7c-5.7-0.2-11.4-0.3-17.1-0.4c0-2.3,0-4.7,0-7c2.1-0.1,4.2-0.3,6.3-0.1c42.8,2.6,85.7,3.7,128.6,2.8
		c24.8-0.5,49.4,1.5,73.6,6.2c28.9,5.6,58.3,7.6,87.8,9.4c45.1,2.8,90.1,6.7,133.6,17.4c39.3,9.7,76.8,22.7,113.3,37.5
		c33.9,13.8,66.4,29.5,98.1,46.1C676,948,711.3,965,749.2,978.6c36.2,13,73.6,23.8,111.6,33c41.8,10.1,83.9,19.5,125.9,29.2
		c48.5,11.2,96.4,23.7,144,37.1c2.2,0.6,4.3,1.4,6.4,2.1C1131.9,1080,1126.9,1080,1121.8,1080z"/>
	<path class="st0" d="M1506.3,0c10,15.4,15.1,32,18.9,48.8c7.9,35.2,17.9,69.9,34.5,103.2c9.7,19.5,20.3,38.6,31.2,57.7
		c22.3,39,44.9,78,67.6,116.9c20.8,35.5,44.8,69.5,73.3,101.4c12.6,14.1,26.3,27.5,43.2,38.6c16.5,10.7,34.6,18.6,56,20.9
		c18.3,2,36.4,0.8,54-3.4c11.9-2.9,23.3-6.9,34.9-10.4c0,3.7,0,7.4,0,11.1c-1.7,0.6-3.5,1-5.2,1.7c-23.1,9.2-47.6,14.7-73.5,16
		c-29.5,1.4-55.3-6.1-78.1-20.7c-14.9-9.6-27.3-21-38.6-33.2c-25-27-45.8-56-63.5-86.3c-14.8-25.4-28.4-51.2-42.5-76.9
		c-16.4-29.8-33.3-59.4-49.1-89.4c-23.8-45-40.6-91.6-50.6-139.7c-2.5-11.9-6.1-23.6-10.1-35.2c-2.5-7.2-6.7-14.1-10.2-21.1
		C1501.2,0,1503.8,0,1506.3,0z"/>
	<path class="st0" d="M1086.3,1080c-2-0.7-4-1.7-6.1-2.2c-56-14.7-113.1-26.4-170.5-37.1c-58.9-11-117-24.1-173.2-42
		c-42.5-13.5-83.3-29.6-122.7-48.1c-36.8-17.3-74.5-33.1-114.2-45.8c-39.8-12.7-81.1-21.1-123.3-26.9c-35.6-4.9-71.3-9.4-107-14
		c-21.3-2.8-42.2-7-62.6-12.7c-30.4-8.4-61.7-13-93.9-13.2c-37.7-0.2-75.2-2.2-112.8-4.3c0-2.3,0-4.7,0-7
		c15.2,0.7,30.4,1.6,45.6,2.2c22.2,0.8,44.4,1.6,66.6,1.8c32.4,0.2,64.1,3.5,94.9,11.4c27.9,7.2,56.6,10.9,85.6,14
		c43.6,4.7,87.1,9.4,129.9,18.1c49.2,10,96,24.8,140.8,43.7c17.9,7.6,35.8,15.3,52.9,23.9c74.1,37.1,153.9,63.7,238.1,82.1
		c39.9,8.8,80.1,16.8,120.1,25.1c41.5,8.6,82.5,18.7,123.2,29.4c1.8,0.5,3.4,1.2,5.2,1.8C1097.3,1080,1091.8,1080,1086.3,1080z"/>
	<path class="st0" d="M1524.1,0c7.9,12,12.4,24.9,16.4,37.9c4.7,15.3,8.9,30.7,13.9,45.9c7.6,22.9,18.6,44.9,32.1,66
		c30.3,47.5,60.6,95.1,91.5,142.4c21.9,33.5,46.3,65.9,73.2,97c11.7,13.6,24.1,26.7,38.8,38.4c4.8,3.8,9.8,7.4,15,10.8
		c29,19.5,62,24,98,15.5c5.8-1.4,11.3-3.6,17-5.4c0,3.7,0,7.4,0,11.1c-24.8,9.5-50.6,13.8-78.1,10.1c-14.4-1.9-27.4-6.6-39.4-13.2
		c-18.8-10.4-34.1-23.5-47.7-37.9c-24.5-25.9-46.1-53.3-65.3-81.9c-14.3-21.3-27.6-43-41.1-64.6c-19.4-31.1-38.2-62.4-57.8-93.3
		c-25.3-39.9-43.4-81.7-53.9-125.6c-3.1-13.1-8-26-12.6-38.9c-1.8-4.9-5-9.6-7.6-14.3C1519,0,1521.5,0,1524.1,0z"/>
	<path class="st0" d="M1049.5,1080c-3.8-1-7.5-2.2-11.3-3.1c-47.8-11.4-96.5-19.9-145.3-28.2c-55.6-9.5-110.8-20.3-164.1-36.2
		c-50.3-15-99.3-32.3-146.5-52.8c-34.9-15.2-70.8-28.6-108.4-39c-31.7-8.7-64.3-14.3-97.2-18.7c-40-5.3-80-10.7-119.6-18
		c-20.8-3.9-41-9.4-60.9-15.6c-29.5-9.1-60.1-13.3-91.7-13.9c-31.3-0.6-62.5-2.3-93.8-3.4c-3.6-0.1-7.2-0.2-10.8-0.3
		c0-2.3,0-4.7,0-7c5.3,0.1,10.6-0.1,15.8,0.3c33.1,2.3,66.3,3,99.5,3.7c26,0.5,51.5,3.7,75.8,11c38.6,11.6,78.5,18.7,118.9,24.3
		c30.2,4.2,60.4,8.2,90.6,12.6c58.6,8.5,113.4,25.3,165.8,47.3c11,4.6,22,9.4,32.8,14.3c80.6,36.1,166,62.4,255.9,79.7
		c39.6,7.6,79.5,14.4,119.1,22.3c29.3,5.8,58.2,12.9,87.3,19.4c1.6,0.4,3.1,1,4.6,1.5C1060.5,1080,1055,1080,1049.5,1080z"/>
	<path class="st0" d="M1541.8,0c10.4,17.7,16.7,36.5,23.1,55.2c8.4,24.5,20.7,47.8,36.2,70c28.1,40.2,55.5,80.6,83.9,120.6
		c28.1,39.6,57.4,78.6,89.6,116.2c11.3,13.2,23.5,25.8,37.3,37.4c8.8,7.3,18,14.2,29,19.4c25.1,12.1,51.5,14.1,78.9,5.5
		c0,3.7,0,7.4,0,11.1c-9.6,2.7-19.2,5.1-29.4,6c-26.7,2.2-50.1-4-70.7-17.4c-14-9.1-26-19.6-37.1-30.9c-19.5-19.9-36.4-41.1-53-62.5
		c-26.6-34.2-51.2-69.4-74.6-105.1c-16.5-25.1-33-50.2-50.5-74.9c-23.5-33.1-41-67.9-51.5-104.9c-4.4-15.7-10.2-31.1-19.1-45.7
		C1536.8,0,1539.3,0,1541.8,0z"/>
	<path class="st0" d="M1008.9,1080c-4.2-1-8.4-2.2-12.6-3.1c-41.5-8.6-83.6-15.3-125.8-21.1c-108.3-15-210.6-43.9-309.1-81.9
		c-24.3-9.4-48.9-18.3-73.9-26.6c-38.6-12.8-79.3-19.8-120.5-25.3c-40.2-5.3-80.4-11.1-119.6-20.3c-17.4-4.1-34.4-9.2-51.2-14.7
		c-29.8-9.8-60.6-15.8-93-15.8c-34.5,0-68.9-1.9-103.3-3.5c0-2.3,0-4.7,0-7c6.1,0.1,12.2-0.1,18.3,0.3c28.9,1.7,57.8,2.8,86.8,2.9
		c30.6,0.2,60.1,4.8,88.3,14.3c38,12.8,77.7,20.6,118,26.8c27,4.1,54.1,7.7,81.2,11.4c54.8,7.6,106.5,22.5,156,42.3
		c32.8,13.2,65.7,26.2,99.5,37.8c71.3,24.5,145,42.4,221.2,54.3c47.3,7.4,94.6,14.8,141,25c5.5,1.2,10.8,2.6,16.2,4
		C1020.7,1080,1014.8,1080,1008.9,1080z"/>
	<path class="st0" d="M963.2,1080c-9.2-1.7-18.4-3.6-27.7-5c-39.9-5.8-79.8-11.5-119.8-16.9c-57.1-7.6-112.4-20.4-166.8-35.9
		c-44.6-12.7-88.5-26.6-131.5-42.4c-50.4-18.5-102.9-31.2-157.6-38.8c-37.1-5.1-73.9-11.3-109.9-20c-16.9-4.1-33.5-9.3-49.9-14.6
		c-18.1-5.7-35.9-11.8-55.1-14.9c-15.8-2.5-31.8-3.8-47.9-3.6c-30.5,0.4-60.9-1.4-91.3-2.6c-1.9-0.1-3.8-0.4-5.6-0.6
		c0-2.3,0-4.7,0-7c9.9,0.3,19.8,0.8,29.8,1c26.2,0.7,52.4,1.4,78.6,2c23.2,0.6,45.8,3.8,67.6,10.2c5.2,1.5,10.3,3,15.3,4.8
		c34.8,12.5,71.3,21,108.6,27.2c27.3,4.5,54.7,8.6,82.2,12.6c52,7.4,101.2,21.3,148.8,39.2c59.8,22.6,121.2,42,184.2,58.2
		c40.7,10.5,82.4,17.6,124.4,23.9c45.5,6.8,90.8,14,136.2,21.1c2.6,0.4,5.2,1.3,7.8,1.9C976.7,1080,969.9,1080,963.2,1080z"/>
	<path class="st0" d="M225.9,0c0.6,0.9,1,1.8,1.7,2.6C239.7,15.1,252,27.4,264,40c23.8,24.8,50.9,47.1,82.6,65.6
		c42.6,24.8,84.9,49.9,129.5,72.5c35.5,18,68,38.6,96,63.7c1.7,1.5,3.6,2.9,5.3,4.3c10.7,9.1,23.8,11.9,38.7,8.8
		c9.2-1.9,18.3-4.3,27-7.2c29.7-9.9,57.4-22.8,85-35.8c45.8-21.6,89.5-45.8,133.5-69.6c42.4-23,84.7-46.1,128.8-67
		c54.5-25.7,110.7-49.1,169.8-67.6c6.3-2,12.7-3.7,19-5.7c1.7-0.5,3.2-1.4,4.7-2.1c5.9,0,11.8,0,17.8,0c-1.1,0.4-2.2,1-3.4,1.2
		c-43.4,10.6-84.5,25.5-124.9,41.6c-58.3,23.2-113.6,50.4-167.5,79.4c-45.7,24.5-91.2,49.2-137.3,73.3
		c-36.9,19.3-75,37.1-114.9,52.3c-12,4.6-24.5,8.2-37,11.8c-4.5,1.3-9.4,1.9-14.2,2.4c-9.9,1-19-0.8-26.7-5.8
		c-4.6-3-8.9-6.2-12.9-9.7C536.7,224.1,507,205,474.3,189c-41.2-20.2-80-43.3-119-65.9c-38.8-22.5-71-50.1-98.8-81
		C243.7,27.9,231,13.7,215.4,1.3c-0.4-0.3-0.6-0.8-0.9-1.3C218.3,0,222.1,0,225.9,0z"/>
	<path class="st0" d="M904.8,1080c-6.1-1-12.2-2.3-18.4-3c-29.6-3.7-59.2-7.5-88.9-10.8c-48.5-5.4-95.7-14.8-142.5-26.1
		c-54.4-13.1-107.8-28.5-160.3-45.8c-46.6-15.4-94.5-27-143.9-35c-37.7-6.1-75.1-13.1-111.6-23c-16.2-4.4-31.9-9.7-47.7-15
		c-20.7-6.9-41.8-12.8-64.3-14.8c-7.6-0.7-15.2-1.4-22.7-1.3c-31.5,0.2-63-0.4-94.4-2.1c-3.4-0.2-6.7,0-10.1,0c0-2.7,0-5.4,0-8
		c32.3,1.4,64.6,3.2,97,2.7c30.7-0.4,60.1,4.3,88.3,14c22.1,7.5,44.3,15.1,67.5,20.4c33.1,7.6,66.6,14.1,100.5,19
		c54.5,8,106.8,21.4,157.7,38.9c66,22.7,133.6,42,202.9,57.3c33.2,7.3,67.1,12.3,101.1,16.7c37.8,4.9,75.5,10,113.2,15
		c1.2,0.2,2.3,0.7,3.4,1C922.6,1080,913.7,1080,904.8,1080z"/>
	<path class="st0" d="M1558.3,0c8.9,13.2,15.2,27.2,21.4,41.3c9.1,20.6,20.6,40.3,34.5,59.2c25.7,35,50.8,70.3,77.1,105.1
		c29,38.3,58.8,76.3,88.9,114.1c11,13.9,23.4,27,35.8,40.2c9.5,10.1,20.5,19.1,33,27c12.1,7.6,25.5,13.1,41,14.9
		c10.2,1.2,20.2,0.3,30.1-1.6c0,3.7,0,7.4,0,11.1c-3.9,0.6-7.8,1.4-11.7,1.9c-19.1,2.7-37-0.2-53.7-7.8
		c-12.8-5.8-23.5-13.7-33.4-22.2c-17.2-14.8-32-31.2-45.6-48.2c-46.2-57.5-90.7-115.8-132.1-175.6c-10.6-15.3-21.6-30.3-32.7-45.4
		c-15.7-21.3-28.3-43.8-37.5-67.4c-5.9-15.2-11.9-30.4-20.8-44.7c-0.3-0.6-0.3-1.3-0.4-1.9C1554.1,0,1556.2,0,1558.3,0z"/>
	<path class="st0" d="M247.5,0c2.2,2.6,4.4,5.3,6.8,7.9c27.9,29.5,61.2,54.4,99.6,75.3c46.7,25.4,93.2,51.1,139.6,76.9
		c14.4,8,28.4,16.4,42.1,25c16.8,10.5,31.8,22.6,45.8,35.4c4.7,4.3,9.5,8.6,14.5,12.7c9.1,7.6,20.3,9.8,33.1,7.9
		c10.9-1.6,21.1-4.8,31.2-8.3c26.3-9.4,51-21,75.6-32.8c41.7-20.1,81.8-42.3,122.1-64.2c41.4-22.4,82.6-45,125.5-65.5
		c53.7-25.6,109-48.7,166.8-67.9c1.7-0.6,3.2-1.5,4.8-2.2c3.8,0,7.6,0,11.4,0c-1.2,0.6-2.3,1.4-3.6,1.8
		c-79,25.1-153.3,57.2-224.1,94.4c-49.5,26-98.4,52.8-147.7,79c-38.8,20.7-78.4,40.3-120.1,57.1c-14.5,5.8-29.3,11.3-45.2,14.3
		c-15.3,2.9-28.5,0.5-39.2-9c-5.1-4.5-10.3-8.9-15.4-13.4c-20.3-17.9-43.3-33.4-68.2-47.2c-44.5-24.7-89.2-49.2-133.5-74
		c-17.1-9.6-33.8-19.6-49.9-30.1c-19.2-12.4-36.2-26.7-51.5-42.2c-9.2-9.4-18.5-18.8-27.7-28.2c-0.7-0.8-1.1-1.8-1.7-2.6
		C241.5,0,244.5,0,247.5,0z"/>
	<path class="st0" d="M827.4,1080c-7.5-1-14.9-2.2-22.4-2.9c-75.2-6.7-148.5-20.2-220.8-37.8c-46.3-11.3-91.7-24.5-137.1-37.7
		c-37.1-10.8-75.5-18.4-113.7-26.2c-34.8-7.1-69.6-14.2-103.2-24.2c-16-4.8-31.7-10.1-47.5-15.5c-28-9.4-57.2-14.1-87.7-13.5
		c-28.8,0.5-57.5-0.5-86.2-2.1c-2.9-0.2-5.9,0-8.9,0c0-2.7,0-5.4,0-8c13.5,0.7,27,1.7,40.5,2c18.8,0.5,37.6,0.8,56.4,0.7
		c29.6-0.2,58,4.1,85.2,13.3c6,2,12.1,4,18.1,6.1c35,12.5,71.9,20.6,109,28.1c28.2,5.7,56.7,10.8,84.9,16.6
		c35.3,7.2,69.1,17.9,103,28.2c68.7,20.9,138.6,38.9,210.3,52.3c29.9,5.6,60.1,9.2,90.5,12.6c21.6,2.4,43.1,4.8,64.7,7.2
		c1,0.1,2,0.5,2.9,0.8C852.8,1080,840.1,1080,827.4,1080z"/>
	<path class="st0" d="M269,0c2.2,2.6,4.1,5.4,6.7,7.7c15.9,14.2,33.6,27,53.4,37.7c14.6,7.9,29.7,15.5,45,22.6
		c56.2,26.3,108.5,57,160.2,88.4c24.9,15.1,47.1,32.6,66.7,52c3.8,3.8,7.9,7.5,12.1,10.9c7.8,6.3,17.4,9,28.3,7.2
		c8.6-1.4,17.3-3.3,25.4-5.9c20.5-6.5,39.4-15.3,58.3-24.2c41.6-19.6,81.3-41.6,121.3-63.2c44.3-24,88.4-48.3,134.4-70.2
		c46.6-22.2,94.5-42.4,144-60.2c2-0.7,3.8-1.9,5.7-2.8c3.4,0,6.8,0,10.2,0c-1.4,0.7-2.8,1.5-4.3,2c-75.6,26.5-147.5,58.4-216,94.9
		c-44.5,23.8-88.8,47.9-133.3,71.7c-31.6,16.9-63.7,33.1-97.4,47.1c-12.5,5.2-25.5,9.8-38.7,13.8c-7,2.1-14.7,2.9-22.2,3.6
		c-7.7,0.7-14.7-1.6-20.3-5.7c-4.4-3.2-8.5-6.5-12.2-10.2c-23.6-23.3-51.2-43.3-81.6-60.7c-50-28.6-99.7-57.8-152.3-83.4
		c-32.2-15.7-62-33.9-86.8-56.7c-5.8-5.3-11.1-10.9-16.7-16.4C262.3,0,265.6,0,269,0z"/>
	<path class="st0" d="M1576.1,0c0.5,1.1,0.8,2.2,1.4,3.2c5.1,8.1,10.4,16.1,15.3,24.2c10.6,17.7,22.4,34.9,35,51.7
		c22,29.2,43.3,58.7,65.8,87.6c34.9,44.7,70.3,89.2,106,133.4c10.7,13.2,22.8,25.8,34.8,38.3c9,9.3,19.7,17.5,31.6,24.6
		c11.3,6.8,23.7,11.7,38.1,12.5c5.2,0.3,10.5-0.3,15.7-0.5c0,3.7,0,7.4,0,11.1c-17.8,3-34.4,0.4-50-6.8c-12-5.6-22.5-12.6-31.4-20.9
		c-11-10.2-22-20.4-31.4-31.5c-18.1-21.4-35.3-43.3-52.6-65.1c-25.5-32.2-51.1-64.4-75.9-96.9c-21.6-28.4-42.3-57.2-63.3-85.9
		c-10.7-14.5-19.3-29.7-27.7-45.1c-5.7-10.6-12.1-21-18.1-31.5c-0.4-0.8-0.7-1.6-1.1-2.3C1571,0,1573.6,0,1576.1,0z"/>
	<path class="st0" d="M291.9,0c1.7,1.6,3.1,3.6,5.1,4.9c9.2,5.9,18.4,11.8,28,17.2c16.4,9.2,34,16.9,52,24
		c68.7,27,129.7,62.9,187.3,102.6c19.4,13.3,36.7,28.2,52.3,44.4c3.3,3.5,6.9,6.8,10.4,10.1c8.8,8.2,20.1,11,33.1,8.4
		c9-1.8,17.8-4.3,26.3-7.2c19.2-6.6,37.4-14.9,54.9-24c40.8-21.2,81.4-42.7,121.8-64.4c44.7-23.9,89.2-48,136-69.3
		c34.6-15.8,69.9-30.6,106-44.1c1.9-0.7,3.5-1.7,5.2-2.6c3,0,5.9,0,8.9,0c-1.2,0.6-2.4,1.4-3.7,1.8
		C1035.3,31.2,959.7,67,886.9,106.5c-42,22.8-84.3,45.4-126.6,67.8c-22.3,11.8-45.3,22.9-69.4,32.3c-9.6,3.8-19.7,6.8-29.8,9.8
		c-4.3,1.3-9,1.8-13.6,2.2c-8.6,0.8-16.5-1-22.9-5.7c-3.9-2.8-7.6-5.9-10.8-9.2c-24-25.2-52.7-46.6-84.1-65.9
		C495,116.4,459.9,95.4,422.5,77c-17.8-8.7-36-16.8-54.3-24.9c-23.4-10.3-45.9-21.5-66.2-35.3c-5.9-4-11.5-8.4-17-12.8
		c-1.4-1.1-2.2-2.7-3.3-4.1C285.1,0,288.5,0,291.9,0z"/>
	<path class="st0" d="M727.1,1080c-5.5-1-10.9-2.2-16.5-3.1c-51.5-8.4-103.3-15.9-154-27.1c-43.6-9.6-86.3-21.3-129.4-32.2
		c-41.5-10.5-83.2-20.3-124.9-30.1c-38.7-9.1-76.8-19.5-113.8-32.6c-19.8-7-40.3-12.2-61.9-14.1c-7.3-0.7-14.7-1.4-22.1-1.3
		c-32.8,0.3-65.5-0.5-98.2-2.3c-2.1-0.1-4.2,0.1-6.3,0.1c0-2.7,0-5.4,0-8c29.1,1.7,58.2,3.4,87.4,2.8c20.3-0.4,40.7,0.1,60.4,4.4
		c12.6,2.7,25.3,5.7,37.2,10c49.3,17.7,100.9,29.9,153,40.9c51.3,10.8,101.5,24.2,151.6,38c78.4,21.6,158.4,38.1,240.2,49.6
		c11.4,1.6,23,2.9,34.4,4.3c1.2,0.2,2.4,0.6,3.6,0.8C754.2,1080,740.7,1080,727.1,1080z"/>
	<path class="st0" d="M319.8,0c1.7,1.2,3.3,2.6,5.2,3.5c10.8,4.9,21.5,10,32.6,14.5c12.6,5.1,25.4,9.9,38.4,14.4
		c50.9,17.6,97.6,40.7,139.8,69.2c18,12.2,35.6,24.7,52.9,37.5c16.4,12.1,30.9,25.7,44.3,40c3.9,4.2,8,8.2,12.5,12
		c7,5.9,16.1,8.3,26,6.6c8.6-1.5,17.2-3.6,25.3-6.3c19.3-6.4,37.4-14.9,54.8-24.1c41.8-21.9,83.5-43.9,124.8-66.3
		c67.6-36.6,137.3-70.3,211.1-98.7c1.4-0.5,2.6-1.5,3.8-2.3c3,0,5.9,0,8.9,0c-1.5,0.7-2.9,1.4-4.4,2c-73.7,28-143.6,61.3-211,97.8
		C841,123.5,797,147,752.7,170c-17.3,9-35.7,16.6-53.8,24.5c-9.3,4-19.2,7-29.6,8.8c-13.7,2.4-25.1-0.2-34-8.9
		c-3.6-3.5-7.2-7-10.6-10.6c-22.9-24.3-50.5-45-79.9-64.3C507.4,95,468.9,71.8,425.9,53.7c-15.3-6.4-30.9-12.4-46.5-18.4
		c-18.8-7.3-37.4-14.9-54.9-24c-5.3-2.8-10.3-5.9-15.4-8.9c-0.9-0.5-1.4-1.5-2.1-2.3C311.3,0,315.6,0,319.8,0z"/>
	<path class="st0" d="M1592.6,0c19.2,24.2,39.4,48,57.5,72.8c32.5,44.4,68.5,86.9,103.3,130c19.7,24.4,38.7,49.1,58.3,73.6
		c12.1,15.1,25.3,29.7,40.5,43c9,7.8,18.6,15.1,29.7,21c11.5,6,24,9.8,38,9.5c0,3.7,0,7.4,0,11.1c-13.3,1-25.6-1.7-37.1-6.8
		c-9.7-4.3-18-10-25.9-16.1c-14-10.8-26.2-22.8-36.9-35.7c-14.5-17.3-28.5-34.9-42.6-52.4c-19.7-24.6-38.9-49.5-59.1-73.9
		c-25.9-31.2-50.1-63.3-73.9-95.5c-19.8-26.9-39.8-53.8-59.6-80.6C1587.5,0,1590.1,0,1592.6,0z"/>
	<path class="st0" d="M654.8,1080c-7.1-1.4-14.2-2.9-21.4-4c-39.8-6.4-79.6-12.5-119.3-19.1c-34-5.6-67.1-13.8-100.1-22.2
		c-52.9-13.5-105.8-27-158.4-41.3c-22.8-6.2-44.7-14.2-67-21.5c-20.2-6.7-40.8-12.1-62.6-14.1c-7.3-0.7-14.8-1.3-22.1-1.3
		c-32.6,0.2-65.1-0.8-97.6-2.4c-2.1-0.1-4.2,0.1-6.3,0.2c0-2.7,0-5.4,0-8c31.9,1.6,63.7,3.3,95.7,2.8c29.6-0.5,58.3,3.5,85.3,13.1
		c60.9,21.7,124.7,36.7,188.3,52.5c32.1,7.9,64.1,16,96.1,24.1c47,11.8,94.8,21,143.2,28.3c24.5,3.7,48.9,7.9,73.3,11.9
		c1.2,0.2,2.3,0.7,3.4,1C675.1,1080,665,1080,654.8,1080z"/>
	<path class="st0" d="M357.9,0c2.4,1.1,4.6,2.3,7.1,3.1c20.3,6.7,40.6,13.3,60.9,20c5.3,1.7,10.4,3.7,15.7,5.4
		c47.6,15.6,88.2,39.4,125.9,66.7c31,22.4,60.3,46,84.7,73.2c2.8,3.1,6,6.1,9.4,8.8c6.3,5.1,14.3,7.4,23.1,6.1
		c7.6-1.1,15.5-2.4,22.4-5c14.1-5.3,28.2-10.8,41.4-17.4c33.3-16.9,66.2-34.3,99-51.7c44.2-23.5,88-47.6,134.3-68.5
		c28.6-12.9,57.9-25,86.8-37.5c2.2-0.9,4.2-2.1,6.3-3.2c2.5,0,5.1,0,7.6,0c-1.2,0.6-2.4,1.4-3.7,1.9
		c-70.3,27.4-137.1,59.6-201.8,94.6c-37.9,20.5-75.9,40.8-114.3,60.7c-16.2,8.4-33.4,15.8-50.4,23.3c-9.8,4.3-20.3,7.5-31.5,9
		c-10.9,1.5-20.1-0.8-27.6-7.2c-2.4-2.1-4.8-4.2-6.9-6.6c-28.5-31.6-63.7-58-100.5-83.4C501.9,62,452.2,39.7,398.7,22.1
		C381,16.3,363.6,9.7,346.1,3.4c-2.2-0.8-4-2.2-6-3.4C346,0,351.9,0,357.9,0z"/>
	<path class="st0" d="M583.7,1080c-1.4-0.4-2.7-0.9-4.1-1.1c-45.5-6.7-90.9-13.5-136.4-20c-27.3-3.9-53.9-10-80-17.1
		c-46.6-12.6-93.3-24.8-138.6-40.3c-14-4.8-27.9-9.6-41.9-14.3c-25.6-8.6-52.3-13-80.1-13.6c-31.7-0.7-63.4-1.5-95-2.3
		c-2.5-0.1-5.1,0-7.6,0c0-2.7,0-5.4,0-8c29.8,0.9,59.5,2.2,89.3,2.6c22.9,0.3,45.7,1,67.7,6.6c14,3.6,27.9,7.8,41.5,12.4
		c81.1,27.6,164.6,49.6,249.5,68.2c21.9,4.8,44.6,7.3,67,10.8c32.5,5.1,65.1,10.1,97.6,15.2c1,0.2,2,0.6,2.9,0.9
		C604.9,1080,594.3,1080,583.7,1080z"/>
	<path class="st0" d="M1611.6,0c1,1.3,1.8,2.6,3,3.8c27.2,27.2,51.2,56.1,74,85.8c15.7,20.4,33.1,40.1,49.4,60.2
		c24,29.7,47.8,59.7,71.7,89.5c13.8,17.3,28.2,34.2,45,49.8c9.1,8.4,18.8,16.3,30,23c10.6,6.4,22.1,11,35.4,12.6c0,3.7,0,7.4,0,11.1
		c-11.4-0.7-21.8-3.9-31.4-8.7c-10.4-5.2-19.5-11.8-27.9-18.8c-12-10-22.7-20.7-32.4-32.2c-12.4-14.8-24.4-29.7-36.5-44.7
		c-25-30.8-50-61.7-74.9-92.6c-13.6-16.9-27.7-33.7-40.5-51c-22.4-30.4-47.9-59.2-73.6-87.8C1605.7,0,1608.7,0,1611.6,0z"/>
	<path class="st0" d="M411.2,0c2,0.8,4,1.7,6.2,2.4c21.9,7,44,13.8,65.8,21c27,8.9,51,21.7,73,36.8c41.1,28.3,79.1,59,111.2,94.1
		c1.9,2,3.9,4,5.8,5.9c8.4,8.5,19.5,11,32.2,8.3c7.3-1.6,14.7-3.5,21.3-6.2c14.2-5.9,28.4-11.9,41.8-18.9
		c40.3-20.9,80.3-42.2,120.4-63.4c53.1-28.2,107.9-54,164.8-77c2.1-0.8,3.9-1.9,5.9-2.9c2.1,0,4.2,0,6.3,0c-1.4,0.7-2.7,1.6-4.2,2.1
		c-65,26-127.1,56-187.3,88.3c-37.6,20.2-75.4,40.2-113.5,59.8c-13.8,7.1-28.6,13-43.1,19.1c-7.5,3.1-15.6,5.1-24.1,6
		c-9.2,1-17.3-0.9-23.7-6.3c-3.5-2.9-6.8-6-9.7-9.3c-35-38.1-77-70.7-123-100.3c-20-12.9-41.7-23.5-65.4-31.5
		c-25.7-8.6-51.6-16.7-77.4-25.1c-2.9-0.9-5.8-2-8.6-3C394.2,0,402.7,0,411.2,0z"/>
	<path class="st0" d="M507.6,1080c-5.3-1-10.5-2.2-15.8-2.9c-37.5-5.1-74.9-10.3-112.5-15.1c-25.2-3.2-49.1-9.9-73-16.7
		c-36.6-10.4-72.3-22.7-107.8-35.3c-20.1-7.1-40.6-13.4-62.5-16c-11.7-1.4-23.5-2.2-35.3-2.6c-31.9-1-63.8-1.7-95.7-2.5
		c-1.7,0-3.3-0.3-5-0.5c0-2.3,0-4.7,0-7c8,0.1,16,0.1,24.1,0.3c22.4,0.5,44.8,1.7,67.2,1.6c35.5-0.1,69.3,5.4,101.5,17
		c52.5,19,106.5,35.1,161.1,49.8c22.7,6.1,46.1,9.5,69.7,12.7c38.5,5.3,77,10.7,115.5,16.1c1,0.1,1.9,0.6,2.9,0.9
		C530.4,1080,519,1080,507.6,1080z"/>
	<path class="st0" d="M469.5,0c1.8,0.8,3.5,1.7,5.4,2.3c8.6,2.7,17.3,5.3,26,8c26.9,8.2,51,20.2,72.4,35.4
		c38.5,27.4,73.3,57.5,104.5,90.2c3.2,3.3,6.4,6.7,9.6,10c8.6,8.9,19.9,11.6,33.2,8.3c6.8-1.7,13.8-3.5,20-6.2
		c14.1-6,28.2-12.2,41.7-19.1c40.4-20.8,80.4-42.1,120.7-63.1c43.6-22.8,88.8-43.5,135.1-62.6c2.2-0.9,4.2-2.1,6.3-3.2
		c2.1,0,4.2,0,6.3,0c-1.2,0.7-2.3,1.4-3.6,2c-66.4,26.8-129.4,58.1-191.1,91.2c-28.4,15.2-56.9,30.2-85.7,44.9
		c-12.4,6.3-25.6,11.7-38.7,17.2c-7.5,3.1-15.5,5.2-24,6.1c-8.5,0.8-16-0.8-22.1-5.7c-3.7-3-7.1-6.2-10.2-9.6
		c-30.5-33.2-66-62.8-104.1-90.4c-25.1-18.2-53.1-32.5-85-42.1C474,9.9,461.8,6,449.6,2.2c-1.9-0.6-3.7-1.5-5.5-2.2
		C452.6,0,461.1,0,469.5,0z"/>
	<path class="st0" d="M1631.9,0c1,1.2,1.7,2.6,2.9,3.7c17.7,15.8,33.5,32.8,48.2,50.4c30.9,37,62,73.9,92.6,111
		c14.9,18.1,29,36.6,43.7,54.7c13.4,16.5,27.7,32.5,44.1,47.2c11.8,10.6,24.6,20.4,40.4,27.2c5.1,2.2,10.7,3.7,16.1,5.5
		c0,3.7,0,7.4,0,11.1c-11.9-2.2-22.3-6.9-32-12.7c-12.5-7.5-23.2-16.6-33.2-26.1c-15.5-14.9-29.4-30.7-42.1-47.1
		c-35.7-46.1-73.4-91.2-111.2-136.2c-6.6-7.8-12.8-15.8-19-23.7c-16.7-21.2-35.2-41.4-55.6-60.4c-1.5-1.4-2.5-3-3.7-4.5
		C1626,0,1629,0,1631.9,0z"/>
	<path class="st0" d="M423.8,1080c-6.4-1-12.7-2.1-19.1-3c-32.4-4.8-64.9-9.2-97.2-14.5c-11.9-2-23.5-5.4-34.8-9.1
		c-23.6-7.8-46.9-16.1-70.4-24.2c-19.4-6.7-39-13-60-15.8c-13.3-1.8-26.8-3-40.3-3.6c-34-1.3-68-2.1-102.1-3.1c0-2.7,0-5.4,0-8
		c1.2,0.1,2.5,0.4,3.7,0.4c30.2,0.8,60.4,2.1,90.6,2.4c34.5,0.3,67.4,5.9,99,16.9c28.4,9.9,57,19.5,85.5,29.3
		c28.7,10,58.9,15.4,89.6,19.4c29.8,3.9,59.6,8,89.3,12c1.4,0.2,2.8,0.6,4.2,1C449.2,1080,436.5,1080,423.8,1080z"/>
	<path class="st0" d="M525.4,0c1.4,0.7,2.8,1.5,4.4,2c26.5,8.4,49.3,21.3,69.6,37c33.6,26,64.5,54,93,83.6
		c3.7,3.9,7.3,7.8,11.3,11.5c7.2,6.7,16.4,9.4,27.3,7c7.1-1.5,14.4-3.2,20.8-5.9c14.9-6.3,29.7-12.9,43.9-20.1
		c38.6-19.7,76.7-39.9,115.2-59.6c36.7-18.9,74.7-36,113.4-52.2c2.2-0.9,4.2-2.2,6.2-3.2c2.1,0,4.2,0,6.3,0
		c-1.4,0.7-2.8,1.5-4.3,2.1c-60.2,24.7-117.5,53-173.8,82.9c-24.2,12.9-48.5,25.7-73.1,38.1c-12.8,6.5-26.1,12.4-39.6,17.9
		c-7,2.9-14.9,4.7-22.7,6.2c-9.3,1.8-17.6-0.4-24.2-6c-3.4-2.9-6.6-6.1-9.7-9.3c-28.3-30.2-59.9-58.1-93.7-84.5
		C570,27.2,540.6,11.5,506.3,2c-1.8-0.5-3.4-1.3-5-2C509.3,0,517.3,0,525.4,0z"/>
	<path class="st0" d="M1651,0c41.7,37.9,75.8,80.1,111.5,121.4c19.9,23.1,38.3,47,57.5,70.5c13,15.9,26.9,31.3,42.4,45.8
		c15.8,14.9,33.6,27.8,55.1,37.4c0.9,0.4,1.7,1,2.6,1.4c0,3.4,0,6.7,0,10.1c-19.1-7-35.1-17.3-49.3-29.4
		c-17.7-15.1-33.1-31.8-47.3-49c-20.4-24.9-39.9-50.1-60.6-74.8c-26.2-31.2-52.9-62.2-80-92.9c-11.2-12.7-24.2-24.5-36.3-36.7
		c-1.1-1.1-2-2.4-3.1-3.7C1645.9,0,1648.4,0,1651,0z"/>
	<path class="st0" d="M573.6,0c0.8,0.7,1.5,1.6,2.5,2c16.7,7.8,31.2,17.7,44.8,28.6c22.9,18.3,43.8,38.2,64.5,58
		c8.1,7.7,15.7,15.8,23.6,23.7c2.6,2.6,5.2,5.3,7.9,7.8c7.7,7.4,17.7,9.6,29,7.1c6.9-1.5,13.8-3.4,20.1-6.1
		c13.4-5.7,26.7-11.6,39.5-18.1c29.6-14.9,58.9-30.2,88.3-45.3c38.1-19.6,77.3-37.8,117.5-54.7c2.2-0.9,4.3-2.1,6.5-3.1
		c1.7,0,3.4,0,5.1,0c-1.4,0.7-2.6,1.6-4.1,2.2C962.1,25.7,908,52.5,854.8,80.5c-23.1,12.1-46.3,24.1-69.8,35.6
		c-10.7,5.3-22.1,9.8-33.6,14c-5.8,2.1-12.5,3-18.9,3.8c-7.1,0.8-13.4-1.3-18.4-5.3c-3.7-3-7.1-6.2-10.2-9.6
		c-26.1-27.4-54.3-53.5-84.3-78.3c-15.6-13-32.4-25-52.1-34.2c-4.7-2.2-9.5-4.3-14.3-6.4C560.1,0,566.8,0,573.6,0z"/>
	<path class="st0" d="M1670,0c0.6,0.7,1,1.5,1.7,2.1c45,42.4,85.3,87.4,123.6,133.7c16.2,19.6,32.7,39.1,49.8,58.2
		c16.1,17.9,34.4,34.4,56.2,48.2c6.1,3.9,12.5,7.5,18.7,11.2c0,3.4,0,6.7,0,10.1c-9-5.3-18.2-10.3-26.9-15.9
		c-17.8-11.6-32.7-25.3-45.9-40.1c-16.8-18.8-33.3-37.9-49-57.4c-34.3-42.5-70.9-83.7-109.3-123.9c-7.4-7.7-15.5-15.1-23.2-22.6
		c-1.2-1.1-2.2-2.4-3.2-3.6C1664.9,0,1667.5,0,1670,0z"/>
	<path class="st0" d="M341.4,1080c-7.4-1.3-14.7-2.7-22.1-4c-17.7-3.1-35.6-5.9-53.1-9.6c-11.2-2.3-22-5.8-32.8-9.2
		c-14.7-4.7-29.1-9.9-43.8-14.7c-29.7-9.7-60.7-14.1-92.7-15c-32.3-0.9-64.6-2-96.9-3c0-2.7,0-5.4,0-8c20.9,0.7,41.8,1.4,62.7,2.2
		c20.9,0.8,41.8,1.3,62.6,2.7c21.8,1.4,42.7,6.4,62.9,13c16.8,5.5,33.6,11.1,50,17.2c23.5,8.8,48.1,14.5,73.5,18.2
		c20.3,3,40.7,6.1,61,9.2c1,0.2,1.9,0.6,2.9,0.9C364.2,1080,352.8,1080,341.4,1080z"/>
	<path class="st0" d="M610.4,0c0.4,0.4,0.6,0.9,1.1,1.2c24.1,14.8,43.7,33,62.9,51.5c17,16.2,33.5,32.8,50.2,49.2c2,2,4,3.9,6.1,5.8
		c7.4,6.8,16.9,8.9,27.5,6.6c7.3-1.6,14.6-3.6,21.2-6.4c13.8-5.8,27.4-12,40.6-18.6c36.3-18.1,72.2-36.7,108.7-54.5
		c23.2-11.3,47.3-21.4,71-32.1c1.8-0.8,3.5-1.8,5.3-2.7c1.7,0,3.4,0,5.1,0c-1.2,0.7-2.3,1.4-3.6,2c-53.6,22.3-104.7,47.8-155.3,74
		c-20.5,10.6-41.3,21-62.2,31c-8.8,4.2-18.4,7.5-27.8,10.8c-4.2,1.5-8.9,2.2-13.4,2.7c-8.3,0.9-15.5-1.2-21.2-6.1
		c-3.7-3.2-7-6.7-10.6-10c-23.8-22.7-47.3-45.5-71.4-67.9c-14.1-13.1-29.8-25.1-47.9-35c-0.7-0.4-1.1-1-1.6-1.5
		C600.2,0,605.3,0,610.4,0z"/>
	<path class="st0" d="M1686.5,0c20,19.5,40.8,38.5,59.6,58.6c23.6,25.3,45.8,51.4,68.4,77.3c16,18.3,31.9,36.6,50.2,53.6
		c15.9,14.8,33.5,28.3,52.7,40.5c0.8,0.5,1.7,0.9,2.6,1.3c0,3.4,0,6.7,0,10.1c-5.4-3.5-10.8-7-16.1-10.5
		c-23-15.2-42.8-32.8-60.2-52.1c-17.7-19.8-34.8-39.9-51.8-60.1c-33.8-40.2-69.9-78.9-109.5-115.6c-0.9-0.9-1.5-1.9-2.3-2.9
		C1682.3,0,1684.4,0,1686.5,0z"/>
	<path class="st0" d="M272.8,1080c-1.1-0.4-2.2-0.9-3.4-1.1c-11-2.4-22.1-4.5-33-7c-15-3.5-30-6.9-44.7-11.2
		c-33.3-9.6-67.8-13.9-103.1-14.9c-29.6-0.9-59.1-2-88.7-2.9c0-2.7,0-5.4,0-8c6.5,0.2,13.1,0.5,19.6,0.7c28.9,1,57.8,2,86.8,3.1
		c31.3,1.2,61.7,6.4,90.4,16.3c32.2,11.1,65.8,17.9,99.8,24.1c1.4,0.3,2.8,0.7,4.2,1C291.4,1080,282.1,1080,272.8,1080z"/>
	<path class="st0" d="M642.1,0c0.4,0.6,0.7,1.2,1.2,1.7C664.2,17,681.9,34.6,699.7,52c12.8,12.5,25.4,25.1,38.2,37.6
		c2.8,2.7,5.7,5.4,9,7.7c5.6,4.1,12.4,5.5,20,4.7c8.1-0.9,15.7-3,22.8-6c12.3-5.2,24.6-10.4,36.5-16.2C857,64.8,887.5,49,918.6,34.1
		c22.4-10.8,45.4-20.7,68.2-31c2-0.9,3.8-2,5.6-3c1.7,0,3.4,0,5.1,0c-1.2,0.7-2.2,1.5-3.5,2c-50.8,21.3-99.3,45.8-147.7,70.3
		c-17.4,8.8-35.1,17.4-53.2,25.4c-8.4,3.7-17.6,6.5-26.8,8.8c-11.4,2.9-21.2,0.3-29-7c-2.7-2.6-5.3-5.2-8-7.8
		c-22-21.2-43.6-42.7-66.1-63.6c-10.8-10-23.3-18.9-35-28.3C632.8,0,637.5,0,642.1,0z"/>
	<path class="st0" d="M1703,0c0.7,0.8,1.4,1.7,2.2,2.4c35.7,31.2,67.6,64.7,97.8,99.2c17.9,20.5,35.9,41,55.9,60.2
		c18.6,17.8,38.8,34.4,61,49.4c0,3,0,6,0,9.1c-21-14.4-40.8-29.6-58.5-46.6c-19.1-18.2-36.2-37.5-52.9-57.1
		c-33.8-39.6-69.4-78-109.6-113.7c-0.9-0.8-1.5-1.9-2.2-2.9C1698.8,0,1700.9,0,1703,0z"/>
	<path class="st0" d="M1920,933.2c-0.9,0.6-1.9,1.2-2.7,1.9c-33.6,29.8-67,59.8-103.9,87.2c-16,11.9-32.9,23-49.9,34.1
		c-12.7,8.3-26.8,15.2-41.3,21.4c-1.4,0.6-2.7,1.5-4,2.2c-6.8,0-13.5,0-20.3,0c0.6-0.4,1.2-0.9,1.9-1.2c29-9.5,54.4-23.6,78.3-39.4
		c31.2-20.7,59.6-43.6,87-67.4c18.4-15.9,36.6-31.9,54.9-47.9C1920,927.2,1920,930.2,1920,933.2z"/>
	<path class="st0" d="M218.3,1080c-7.7-1.6-15.3-3.7-23.1-4.8c-38.6-5.6-77.3-10.5-116.7-11.5c-26.2-0.6-52.3-1.8-78.4-2.8
		c0-2.7,0-5.4,0-8c19.6,0.7,39.2,1.3,58.8,2.2c23.8,1.1,47.6,2.3,71.3,4c10.9,0.8,21.7,2.7,32.3,4.7c24.2,4.6,48.3,9.5,72.4,14.3
		c2.2,0.4,4.2,1.3,6.4,1.9C233.5,1080,225.9,1080,218.3,1080z"/>
	<path class="st0" d="M670,0c0.3,0.4,0.4,1,0.8,1.3c21.7,17.9,40.3,37.9,60,57.1c7.1,6.9,14,13.9,21.2,20.7
		c12,11.4,21.1,13.7,38.5,8.4c10.8-3.3,21.4-7.3,31.3-12c26.7-12.6,52.8-25.9,79.4-38.5c24.5-11.6,49.3-22.7,73.9-34
		c2-0.9,3.8-2,5.8-3c1.7,0,3.4,0,5.1,0c-1.2,0.6-2.4,1.4-3.7,1.9C939.4,20.1,898.2,40.5,857,61c-16.6,8.3-33.5,16.3-50.6,24
		c-9.7,4.4-19.9,8.2-31.1,9.8c-8.8,1.3-16.4-0.5-22.7-5.4c-3.4-2.7-6.6-5.7-9.6-8.7c-18.5-18.1-36.7-36.4-55.5-54.3
		C678,17.3,667.4,8.8,657.3,0C661.6,0,665.8,0,670,0z"/>
	<path class="st0" d="M1719.5,0c0.7,1,1.1,2.1,2,2.9c32.5,27.8,61.2,58,89.3,88.6c22.8,24.9,46,49.7,72.9,72
		c11.8,9.8,24.2,19.1,36.3,28.6c0,2.7,0,5.4,0,8c-17.6-12.1-33.7-25.4-49.1-39.1c-19.4-17.3-36.8-35.9-53.8-54.7
		c-23.7-26.1-47.1-52.4-73.3-77.1c-10.5-9.9-21.3-19.5-31.9-29.3C1714.4,0,1717,0,1719.5,0z"/>
	<path class="st0" d="M695.4,0c4.3,4.1,8.7,8.2,12.9,12.4c16.9,16.7,33.8,33.5,50.7,50.2c3.3,3.3,6.8,6.4,10.5,9.4
		c6.4,5.1,14.2,7.4,23.1,5.7c6.9-1.3,14.1-2.7,20.3-5.3c18.1-7.6,35.9-15.7,53.6-23.9c33-15.3,65.9-30.7,98.9-46.1
		c1.4-0.7,2.7-1.5,4-2.3c1.7,0,3.4,0,5.1,0c-1,0.6-2,1.2-3.1,1.7c-41.4,17.5-81,37.5-121,56.8c-12.6,6.1-25.6,11.8-38.6,17.3
		c-7.6,3.3-15.7,5.7-24.3,6.9c-8.6,1.2-16-0.4-22.2-5.1c-3.7-2.8-7-5.8-10.2-8.9c-17-16.7-33.8-33.5-50.8-50.2
		C697.8,12.2,690.8,6.2,684,0C687.8,0,691.6,0,695.4,0z"/>
	<path class="st0" d="M1920,952.3c-22.4,19.1-44.6,38.4-67.2,57.3c-24.2,20.3-49.9,39.5-77.6,56.8c-7.4,4.6-15.1,9.1-22.7,13.6
		c-4.7,0-9.3,0-14,0c13.5-7.8,27.4-15.1,40.4-23.4c32.3-20.5,61.2-43.7,89.2-67.8c16.9-14.5,33.6-29.2,50.4-43.8
		c0.4-0.3,1-0.5,1.5-0.8C1920,946.9,1920,949.6,1920,952.3z"/>
	<path class="st0" d="M1733.5,0c14.6,13.5,29.7,26.6,43.7,40.5c23,22.7,45.2,46,68,68.9c22.3,22.4,46.9,43.2,72.4,63.3
		c0.7,0.5,1.6,0.9,2.5,1.3c0,2.7,0,5.4,0,8c-33.1-25-63.1-52.1-90.7-81c-22.4-23.3-44.8-46.6-67.7-69.6
		c-10.9-10.9-22.9-21-34.4-31.5C1729.2,0,1731.3,0,1733.5,0z"/>
	<path class="st0" d="M719.5,0c19.4,19.2,38.7,38.4,58.1,57.6c9.3,9.2,21.2,11.2,34.7,7.4c8.1-2.3,16.2-4.9,23.7-8.2
		c19.3-8.6,38.3-17.6,57.5-26.5c19.9-9.2,39.8-18.2,59.7-27.4c1.8-0.8,3.3-1.9,4.9-2.9c1.7,0,3.4,0,5.1,0c-1,0.6-1.9,1.3-3,1.8
		c-34.9,16.3-69.8,32.6-104.8,48.8c-11.5,5.3-23.2,10.3-35.1,15c-5.8,2.3-12.1,3.9-18.4,5.2c-10.2,2.1-19.5,0.4-26.5-6.1
		c-9.1-8.3-18-16.8-26.8-25.4c-12.8-12.5-25.3-25.1-37.9-37.7c-0.5-0.5-0.8-1.1-1.3-1.7C712.8,0,716.1,0,719.5,0z"/>
	<path class="st0" d="M1748.7,0c0.6,0.8,1,1.8,1.8,2.5c28.5,24.4,54.3,50.5,80.4,76.4c27.6,27.4,57.4,53.2,88,78.5
		c0.3,0.2,0.7,0.3,1.1,0.5c0,2.3,0,4.7,0,7c-28.8-22.7-56-46.5-81.4-71.6c-23.7-23.4-47.3-46.8-71.1-70.1
		c-6.8-6.6-14.3-12.8-21.4-19.2c-1.4-1.2-2.5-2.6-3.8-3.9C1744.5,0,1746.6,0,1748.7,0z"/>
	<path class="st0" d="M0,177c1.2-1.1,2.7-2,3.4-3.3c5.1-8.5,8.1-17.5,9.4-26.9c2.9-21.6,7.4-43.1,16.4-63.7
		c6.5-14.9,14.7-29.2,25.5-42.4C68.3,24,85.2,10.3,107.9,1.4c0.9-0.4,1.7-1,2.5-1.4c6.3,0,12.7,0,19,0c-1.3,0.5-2.5,1.2-3.8,1.5
		C104.4,6.6,87,16.3,72.5,29.4C55,45,43.3,63.3,34.2,82.7c-8.7,18.8-13.9,38.2-16.5,58.1c-1.9,14.3-6,28-14.5,40.7
		c-0.8,1.3-2.2,2.3-3.3,3.5C0,182.3,0,179.7,0,177z"/>
	<path class="st0" d="M1920,970.4c-39.3,33.9-78.3,68-122.8,97.8c-6,4-12,7.9-18.1,11.8c-3.4,0-6.8,0-10.2,0
		c0.8-0.7,1.5-1.6,2.4-2.2c31.2-18.8,59.6-40,86.6-62.5c19.2-16,38.1-32.3,57.1-48.4c1.7-1.5,3.3-3.1,4.9-4.6
		C1920,965,1920,967.7,1920,970.4z"/>
	<path class="st0" d="M0,1070.9c48.2,1.7,96.5,3.4,144.7,5.3c10.9,0.4,21.8,1.9,32.7,2.9c1,0.1,1.9,0.6,2.8,0.9
		c-46.1,0-92.2,0-138.3,0c-14-0.3-27.9-0.7-41.9-1C0,1076.3,0,1073.6,0,1070.9z"/>
	<path class="st0" d="M1761.4,0c52.6,46.3,100.4,95.8,155.6,140.3c1,0.8,2,1.7,3,2.5c0,2,0,4,0,6c-1.4-1-2.8-1.9-4.1-3
		c-35.6-29.3-69.2-60-101.6-91.5c-18-17.5-37-34.4-55.5-51.5c-0.9-0.9-1.7-1.9-2.5-2.8C1758,0,1759.7,0,1761.4,0z"/>
	<path class="st0" d="M742.4,0c15.9,15.9,31.6,31.8,47.7,47.5c8.4,8.2,19.5,10.4,32,6.9c8.7-2.4,17.5-5.1,25.6-8.5
		c17.3-7.4,34.2-15.4,51.2-23.1c14.7-6.7,29.3-13.3,44-20c1.8-0.8,3.4-1.9,5.1-2.8c1.3,0,2.5,0,3.8,0c-1.1,0.7-2.1,1.6-3.3,2.2
		C920,15.3,891.6,28.6,863,41.5c-11.2,5.1-22.6,9.9-34.2,14.2c-6,2.2-12.7,3.5-19.3,4.5c-8.5,1.3-15.9-1.1-21.9-6
		c-3.1-2.5-6.2-5.1-8.9-7.8c-15.5-15.4-31-31-46.5-46.4C735.6,0,739,0,742.4,0z"/>
	<path class="st0" d="M1920,988.5c-1.5,1.1-3.1,2.1-4.5,3.3c-29.5,24.9-59,49.8-90.9,72.7c-5.8,4.2-11.7,8.2-17.6,12.3
		c-1.4,1-2.5,2.1-3.8,3.2c-3.4,0-6.8,0-10.2,0c0.4-0.4,0.7-0.9,1.2-1.2c34.4-22.2,65.2-47.2,95.5-72.7c10.1-8.5,20.2-17.1,30.2-25.7
		C1920,983.1,1920,985.8,1920,988.5z"/>
	<path class="st0" d="M1775.3,0c0.6,0.8,1,1.8,1.8,2.5c28.5,25.6,56.8,51.2,85.5,76.6c17.6,15.6,35.7,30.8,53.6,46.1
		c1.1,0.9,2.5,1.6,3.7,2.4c0,2.3,0,4.7,0,7c-4-3.4-7.9-6.9-12-10.3c-37.4-31.2-72.6-63.9-107.9-96.6c-10.2-9.4-20.7-18.5-31.1-27.8
		C1771.1,0,1773.2,0,1775.3,0z"/>
	<path class="st0" d="M0,156.9c0.9-1.4,2.3-2.8,2.6-4.3c1.8-9.9,3.3-19.9,5.1-29.9c4.6-25.7,13.4-50.4,28-73.7
		C47.2,30.9,61.6,14.5,82.2,1.9c0.7-0.4,1.1-1.3,1.6-1.9c3.4,0,6.8,0,10.2,0c-0.7,0.6-1.4,1.3-2.2,1.7
		c-18.5,9.7-32.6,22.7-43.9,37.6c-17.1,22.5-28,46.8-33.8,72.5c-2.7,11.7-4.1,23.5-6.5,35.2c-1,5.3-2.7,10.5-4.3,15.6
		c-0.5,1.5-2.1,2.8-3.1,4.1C0,163.6,0,160.2,0,156.9z"/>
	<path class="st0" d="M763.9,0c11.9,11.9,23.9,23.9,35.9,35.8c1.2,1.2,2.6,2.2,3.9,3.3c7.3,5.9,16.2,7.8,26.1,5.7
		c7.3-1.6,14.6-3.5,21.3-6.2c12.7-5,25-10.4,37.4-15.9c14.8-6.5,29.4-13.2,44-19.9c1.8-0.8,3.5-1.9,5.2-2.8c1.3,0,2.5,0,3.8,0
		c-0.9,0.6-1.8,1.4-2.8,1.9C914.4,13,890,24.1,865.6,35.1c-7.7,3.5-15.7,6.6-23.7,9.5c-4.8,1.8-9.8,3.1-14.9,4.3
		c-11.7,2.7-21.9,0.6-29.8-6.8c-9.7-9.1-19.2-18.3-28.5-27.6c-4.7-4.7-9-9.6-13.5-14.5C758,0,761,0,763.9,0z"/>
	<path class="st0" d="M1788,0c0.9,1.1,1.6,2.3,2.7,3.2c42.3,36.6,84.6,73.2,126.9,109.8c0.7,0.6,1.5,1.1,2.3,1.6c0,2,0,4,0,6
		c-46.1-40.2-92.2-80.4-138.3-120.7C1783.8,0,1785.9,0,1788,0z"/>
	<path class="st0" d="M1920,1004.6c-10.4,8.5-20.6,17.2-31.3,25.5c-21.6,16.7-43.4,33.3-65.1,49.9c-3,0-5.9,0-8.9,0
		c37.4-25.7,71.2-54.2,105.3-82.5C1920,999.9,1920,1002.2,1920,1004.6z"/>
	<path class="st0" d="M785.5,0c0.6,0.9,1,1.9,1.7,2.6c7.4,7.3,14.9,14.6,22.4,21.8c1.7,1.7,3.7,3.2,5.7,4.7
		c7.2,5.7,15.9,7.5,25.6,5.5c6.3-1.3,12.8-2.7,18.5-5.1c22.5-9.3,44.6-19,66.9-28.6c0.5-0.2,0.9-0.7,1.3-1c1.3,0,2.5,0,3.8,0
		c-0.6,0.5-1,1.1-1.7,1.4c-22.9,10.1-45.7,20.3-68.8,30.1c-7.2,3-15.1,5.2-22.9,7.2c-11.3,2.8-21.5,0.8-29.3-6.5
		C798,22,787.6,11.7,777.1,1.4c-0.4-0.3-0.3-0.9-0.5-1.4C779.6,0,782.6,0,785.5,0z"/>
	<path class="st0" d="M1800.7,0c1.1,1.3,2.1,2.8,3.4,3.9c37.3,31.8,74.7,63.5,112.1,95.3c1.3,1.1,2.5,2.2,3.8,3.3c0,1.7,0,3.4,0,5
		c-36.1-30.9-72.3-61.9-108.4-92.8c-5.7-4.9-11.5-9.8-17.2-14.7C1796.5,0,1798.6,0,1800.7,0z"/>
	<path class="st0" d="M0,110.6c0.9-1.8,2.1-3.6,2.6-5.5c4.5-18.6,11.4-36.6,20.9-54C34.1,31.9,48,14.5,67.3,0c2.1,0,4.2,0,6.3,0
		c-0.3,0.4-0.4,1-0.9,1.3c-22.2,15.3-36.8,34.8-48.1,56C13.2,78.7,6.2,101.1,2.4,124.1c-0.4,2.3-1.6,4.4-2.4,6.7
		C0,124,0,117.3,0,110.6z"/>
	<path class="st0" d="M1812.1,0c1.5,1.4,3,2.8,4.5,4.2c33,27.6,66,55.2,99,82.8c1.4,1.2,2.9,2.4,4.3,3.6c0,1.7,0,3.4,0,5
		c-36.2-30.5-72.3-60.9-108.4-91.4c-1.6-1.3-3-2.8-4.5-4.2C1808.8,0,1810.4,0,1812.1,0z"/>
	<path class="st0" d="M805.8,0c7.4,6.8,14.4,13.9,22.2,20.5c6.8,5.6,15.8,6.2,24.8,4.3c6.3-1.3,12.6-2.9,18.4-5.2
		c14.8-5.8,29.3-11.9,43.8-18c0.9-0.4,1.6-1.1,2.4-1.6c1.3,0,2.5,0,3.8,0c-0.7,0.6-1.4,1.3-2.2,1.6c-17.1,7.2-34,14.7-51.4,21.5
		c-7.3,2.8-15.3,4.6-23.2,6.2c-8.1,1.7-15.6-0.3-21.5-4.9c-5.5-4.3-10.6-9-15.7-13.7c-3.7-3.4-6.9-7.1-10.3-10.7
		C799.9,0,802.9,0,805.8,0z"/>
	<path class="st0" d="M1920,1020.7c-0.8,0.5-1.7,0.9-2.4,1.4c-23.8,18.5-47.7,37.1-71.5,55.6c-0.9,0.7-1.5,1.5-2.3,2.3
		c-3,0-5.9,0-8.9,0c11.5-8.6,23.1-17.1,34.3-25.9c17.1-13.4,33.8-27,50.7-40.5C1920,1016,1920,1018.3,1920,1020.7z"/>
	<path class="st0" d="M1824.8,0c1.4,1.4,2.6,3,4.1,4.2c28.9,23.9,57.8,47.7,86.7,71.6c1.5,1.2,2.9,2.4,4.3,3.6c0,1.3,0,2.7,0,4
		c-2-1.5-4-2.8-5.9-4.4c-30.4-25.2-60.7-50.4-91.1-75.6c-1.3-1-2.2-2.3-3.3-3.5C1821.4,0,1823.1,0,1824.8,0z"/>
	<path class="st0" d="M0,79.4c1.1-1.6,2.4-3,3.1-4.7c5-10.5,9.3-21.2,14.9-31.5c8.6-16,20.2-30.6,35.3-43.3c1.7,0,3.4,0,5.1,0
		c-0.3,0.4-0.5,0.9-0.9,1.3C35.5,19.2,21.8,40.9,11.4,64c-3.3,7.4-5.8,15-8.8,22.5c-0.7,1.7-1.8,3.3-2.7,5C0,87.5,0,83.5,0,79.4z"/>
	<path class="st0" d="M1920,1034.7c-17.8,13.8-35.6,27.6-53.4,41.4c-1.7,1.3-3.3,2.6-5,3.9c-2.5,0-5.1,0-7.6,0c2.6-2,5.1-4,7.7-5.9
		c19.4-15.1,38.9-30.2,58.3-45.3C1920,1030.7,1920,1032.7,1920,1034.7z"/>
	<path class="st0" d="M1836.2,0c1.1,1,2,2.1,3.2,3.1c26.5,21.6,53,43.3,79.5,64.9c0.3,0.2,0.7,0.3,1.1,0.4c0,1.7,0,3.4,0,5
		c-15.8-13.2-31.6-26.4-47.6-39.5c-12.4-10.2-25.1-20.3-37.6-30.5c-1.3-1.1-2.5-2.3-3.7-3.4C1832.9,0,1834.6,0,1836.2,0z"/>
	<path class="st0" d="M826.1,0c4.1,3.5,8.1,7.3,12.4,10.6c6.5,5,14.6,6.9,23.3,4.9c8.6-2,17.2-4.4,25.4-7.2
		c6.9-2.3,13.4-5.5,20.1-8.3c1.3,0,2.5,0,3.8,0c-0.4,0.4-0.7,0.9-1.2,1.1c-14.2,5.5-28.4,11-42.7,16.3c-3,1.1-6.4,1.6-9.7,2.2
		c-9.3,1.6-17.7,0.2-24.4-5.3c-5.5-4.6-10.6-9.5-15.9-14.2C820.2,0,823.2,0,826.1,0z"/>
	<path class="st0" d="M1847.7,0c1.7,1.5,3.3,3,5.1,4.5c22.1,17.8,44.1,35.6,66.2,53.4c0.3,0.2,0.7,0.3,1.1,0.5c0,1.3,0,2.7,0,4
		c-1.1-0.7-2.3-1.4-3.3-2.2c-23.7-19.2-47.5-38.3-71.2-57.5c-1-0.8-2-1.7-3-2.6C1844.3,0,1846,0,1847.7,0z"/>
	<path class="st0" d="M0,57.3c3-0.4,2.8-2.7,3.6-4.3c5.7-12,12.3-23.7,21-34.6c5-6.3,10.7-12.3,16.1-18.4c1.7,0,3.4,0,5.1,0
		c-4.2,4.4-8.6,8.7-12.5,13.2C20.2,28,11,44.3,3.5,61.3c-0.8,1.8-2.3,3.4-3.5,5.1C0,63.4,0,60.3,0,57.3z"/>
	<path class="st0" d="M1920,1048.8c-11.6,8.9-23.2,17.8-34.8,26.6c-2,1.5-3.9,3-5.8,4.5c-2.5,0-5.1,0-7.6,0
		c14-10.7,28.1-21.4,42.1-32.2c2.1-1.6,4.1-3.3,6.1-5C1920,1044.8,1920,1046.8,1920,1048.8z"/>
	<path class="st0" d="M1859.1,0c1.1,1,2,2.1,3.2,3c18.6,14.7,37.1,29.5,55.7,44.2c0.6,0.4,1.3,0.7,2,1c0,1.3,0,2.7,0,4
		c-0.8-0.5-1.7-0.9-2.4-1.4c-20.4-16.2-40.7-32.4-61-48.6c-0.9-0.7-1.7-1.5-2.5-2.2C1855.7,0,1857.4,0,1859.1,0z"/>
	<path class="st0" d="M899.7,0c-11.7,5.8-24.1,10.2-38.1,10.6C851.6,11,844.4,6.3,838.8,0c3.4,0,6.8,0,10.2,0
		c4.3,5.3,11.1,7,18.4,6.7C877,6.3,886.2,4,894.6,0C896.3,0,898,0,899.7,0z"/>
	<path class="st0" d="M1870.5,0c0.4,0.6,0.6,1.3,1.2,1.7c16.1,12.5,32.2,25,48.3,37.5c0,1.3,0,2.7,0,4
		c-17.4-13.6-34.8-27.3-52.2-40.9c-0.9-0.7-1.6-1.5-2.4-2.3C1867.1,0,1868.8,0,1870.5,0z"/>
	<path class="st0" d="M0,40.2c1.3-1.5,2.9-2.8,3.8-4.4C11.1,23.1,19.6,11,30.5,0c1.3,0,2.5,0,3.8,0c-1.8,2-3.5,4.1-5.4,6.1
		C18.5,17.5,10.5,29.9,3.6,42.8c-0.8,1.6-2.4,3-3.6,4.4C0,44.9,0,42.6,0,40.2z"/>
	<path class="st0" d="M1880.7,0c13.1,10.1,26.2,20.1,39.3,30.2c0,1.3,0,2.7,0,4c-13.1-10.1-26.2-20.3-39.2-30.4
		c-1.5-1.1-2.6-2.5-3.9-3.8C1878.1,0,1879.4,0,1880.7,0z"/>
	<path class="st0" d="M1889.5,1080c6.6-5.1,13.3-10.2,19.9-15.2c3.5-2.6,7-5.3,10.5-7.9c0,2,0,4,0,6c-4.1,2.9-8.4,5.8-12.4,8.8
		c-3.6,2.7-7,5.5-10.4,8.3C1894.6,1080,1892.1,1080,1889.5,1080z"/>
	<path class="st0" d="M0,25.1c0.8-0.4,2-0.7,2.4-1.3C8.4,15.9,14.4,8,20.3,0c1.3,0,2.5,0,3.8,0c-3.8,4.8-7.8,9.5-11.4,14.3
		c-3.3,4.4-6.1,9.1-9.3,13.6c-0.9,1.2-2.3,2.2-3.4,3.2C0,29.2,0,27.2,0,25.1z"/>
	<path class="st0" d="M1892.1,0c2.4,2,4.7,4.2,7.2,6.1c6.8,5.1,13.8,10,20.7,15c0,1.3,0,2.7,0,4c-11-8.4-22-16.8-33-25.1
		C1888.7,0,1890.4,0,1892.1,0z"/>
	<path class="st0" d="M1920,17.1c-5.9-4.5-11.7-8.9-17.6-13.4c-1.5-1.1-2.7-2.5-4-3.7c1.7,0,3.4,0,5.1,0c0.3,0.6,0.3,1.3,0.9,1.7
		c5.2,3.8,10.4,7.6,15.6,11.4C1920,14.4,1920,15.8,1920,17.1z"/>
	<path class="st0" d="M15.2,0C11.1,5.2,7.1,10.5,3,15.7c-0.7,0.9-2,1.6-3,2.4c0-1.7,0-3.4,0-5c0.9-0.6,2.1-1.1,2.7-1.9
		c3-3.7,5.8-7.5,8.7-11.2C12.7,0,14,0,15.2,0z"/>
	<path class="st0" d="M1907.3,1080c4.2-3.4,8.5-6.7,12.7-10.1c0,1.7,0,3.4,0,5c-2.1,1.7-4.2,3.4-6.3,5
		C1911.5,1080,1909.4,1080,1907.3,1080z"/>
	<path class="st0" d="M1920,8c-3.8-2.7-7.6-5.4-11.4-8c1.7,0,3.4,0,5.1,0c2.1,1.7,4.2,3.4,6.3,5C1920,6,1920,7,1920,8z"/>
	<path class="st0" d="M6.3,0C4.2,2.3,2.1,4.7,0,7c0-2.3,0-4.7,0-7C2.1,0,4.2,0,6.3,0z"/>
	<path class="st0" d="M882,0c-5.5,1.7-11,2.3-16.5,0C871,0,876.5,0,882,0z"/>
</g>
</svg>
